<svg xmlns="http://www.w3.org/2000/svg" viewBox="0 0 930 1041.12"><title>palms</title><g id="Layer_2" data-name="Layer 2"><g id="Layer_1-2" data-name="Layer 1"><path style="fill:#517CC8" d="M551,326l3.84.48c.07-.42.22-1.34.38-2.35l1.45-.09c1.55,5-1.62,9.9-.35,15.64,2.2-4.82,4.1-9,6.12-13.38l4.34-1.44c.32,4.64-2.46,8.58-2.28,13.06l5-9.81h2.18c.24.6.48,1.17.88,2.15.28-.8.46-1.29.77-2.17l2.36-.14,1.72,4.8,2,.75-4.5,11.31c1.4,0,1.72-1.05,2.37-1.57a28.12,28.12,0,0,0,2.13-2.1c.71-.71,1.41-1.43,2.13-2.12s1.43-1.9,2.16-1.91c1.6,0,1.15-1.28,1.73-2h2.77c-.45,1.29-.83,2.37-1.29,3.66l2.89.45c1.23,3.53-1.63,5.6-3.46,9.07l4.68-2.6c.11,3.23-2.07,4.72-3.57,6.7,2.93.8,3.3-1.88,5-2.45a21.76,21.76,0,0,0,4.31-2.32l2.91,1L595,352.45c4.54,0,8.32-2.82,13.38-2.37-.66,1.12-.91,2.21-1.55,2.54-8,4.05-13.89,10.35-19.23,17.31-.17.22-.3.46-.91,1.4a13.14,13.14,0,0,0,2.52-1.05A74.55,74.55,0,0,1,604.35,361c.08,0,.26.15.73.43-1.23,3.32-4.29,5.12-6.59,7.47s-5,4.31-8.19,6.94h7.59l3.63,1.94,1.57-1a11.71,11.71,0,0,0,2,1.77,10.21,10.21,0,0,0,2.5.66c-.73.9-1.52,1.85-2.43,3l-1.93-1.13c-.42.61-.95,1.4-1.35,2-2.11-.33-4,.7-5.37-.91-3.73,1.93-7.51,3.75-10.89,6.51,2.78,3.9,5.59,7.43,6.23,12-.3.17-.46.34-.56.31-.45-.12-1.19-.2-1.26-.47-.75-2.51-4.46-2.52-4.94-5.52v7.47c-1.1-.69-1.78-.9-2.11-1.37-.91-1.25-1.68-2.61-2.57-4-1.13,1.86-.24,3.51.77,5.42l-1.8,1.42c-.32-.28-.66-.56-1.42-1.18v5.18H575v-3.8l-.63-.06c-.2,1-.4,2-.59,2.94h-1.26l-1-2.12-1.82,4L568,409v-9.2c-5.66,3.66-11.63,5.93-16,10.69,4.33,7,10.72,12.78,13.4,21.5l2.53,2.53,5.67,2.18c4.45-2.56,9.7-1.42,14.89-1.69l2.15,2.67c-5.75.47-10.11,3.06-14.74,4.8.1.6.16.91.26,1.51,1.46-.32,2.92-.73,4.4-.92s2.42-1.6,4-.92c1.41.59,2.91,1,4.81,1.6l-2.54,2.06,3.46.52c-.62.76-.91,1.44-1.42,1.68-2.63,1.24-5.31,2.37-8,3.54,0,.39,0,.72.06,1.05l5.37-.77,1.94,2.49-2.89,1.43,4.35.46v2.39l-5.56,1.52c.33,4.3.66,8.44,1,12.76h-2.82L580.63,468l-.64.12v5.62c-1.43-1.17-2.7-1.68-2.91-2.47-1.54-5.74-4.37-10.87-7.05-16.09a22.65,22.65,0,0,1-1.21-3.55l-2.57,2.22,4.63,9.72-.7.78c.38,2.21.71,4.21,1,6.08l-4.34,5.4-3,.34c.36,1.92.69,3.71,1,5.63h-2.34c-1.27-1.89-2.59-3.87-3.92-5.84,1,3.87.84,7.82,2.25,11.47,1.13,2.94-1.13,7.26-4.41,9.53-.63.44-1.4.67-2,1.12a13.19,13.19,0,0,0-1.42,1.38c0,15.18.15,30.34-.07,45.5-.09,5.92,1.53,11.64,1.16,17.59-.39,6.14-.09,12.33-.09,18.49,0,6-.67,12.09.17,18,1,7.23.67,14.41.8,21.61s-.68,14.42.22,21.47c1,7.73.62,15.41.78,23.1s.64,15.73-.1,23.49c-1.34,14-.57,28.06-.87,42.08-2,6.79-.09,13.81-1.15,20.56-1,6.23,0,12.5-1,18.58-.82,5.08,0,10.19-1,15.08s-.09,9.52-1,14.08c-.81,4.08-.16,8.19-1,12.08s-.11,7.56-1,11.08c-1.46,5.9-.79,11.76-.8,17.62-.11,38,0,76-.07,114,0,6.39,1.46,12.65,1.09,19.09s-.08,12.66-.08,19c0,6.5-.72,13.1.16,19.47,1.47,10.56.37,21.09.84,31.61H535V929.52c0-12.5-.17-25,0-37.49s-.94-25.08.89-37.59c.77-5.3-.41-10.69.89-16.11.9-3.78,0-8,.21-12s.7-7.72.94-11.58c.53-8.19-.71-16.39.9-24.61,1-5.06,1-10.36,1.07-15.55.15-12.17,0-24.33,0-36.5v-73c0-12.17.18-24.33,0-36.49s.42-24-.75-36.1c-1-10.24-.2-20.64-.2-31,0-10.16-.19-20.33,0-30.49s-1-20.41.86-30.59c.83-4.61-.66-9.45,1-14.1a6,6,0,0,0-.36-3.3c-1-3.6-2.93-7-2.65-10.93.07-1-.89-2.08-1.38-3.13a21.46,21.46,0,0,0-.47,7.44c.37,2.56-1.07,4.67-1.1,7.1-.05,3.71.23,7.39-.82,11.12-.58,2.07-.27,4.41-1.41,5.93L529.93,502l-2.9-1.51a27.62,27.62,0,0,1-1.39-4.43c-.32-2.3-2.43-4.38-1.39-6.73,1.4-3.16.56-6.17.33-9.25-1,3.16-1.36,6.52-2.7,9.44-1.41,3.08.23,6.82-2.48,9.44h-1.31c.24-3.86-1.78-7.48-1.06-11.41A5,5,0,0,0,516,484c-.3-.49-1-.76-1.72-1.33-.45,4.2-.45,8-1.35,11.49a53.81,53.81,0,0,0-1.92,14.7,22.31,22.31,0,0,1-.34,2.79c-1.2-1-2.53-1.57-2.54-2.18-.07-4.34-2.69-8.21-2.16-12.67a5.62,5.62,0,0,0-.66-4.23,5.15,5.15,0,0,1-.18-4.3c1.23-2.69.72-5.42.92-8.13a18.6,18.6,0,0,1,.58-2.25c.5-2.23,1-4.46,1.48-6.8-1.56.11-.75,3.09-3.22,1.37v-7.62c-1.61,6.47-2.93,11.75-4.27,17.12l-1.35-.09c-.57-2.36-1.13-4.62-1.8-7.38-.66,3.84-1.24,7.21-1.9,11.08l-2.36-1.85-.5-3.54-.61.05-.17,3.84-1.81-.26c-.29-3.33.17-6.61-.34-10.23-2.1,4.67-3.32,9.15-5.07,14.4-.89-3-1.49-5-2.42-8.09-.29,2.77-.76,4.32-3.26,4-.13-3,2.25-5.85.49-8.91l-3.29,1.12c-.59-3.39,3.83-4.73,2.53-8.07h-29.1c-.13,0-.28.14-.38.26s-.09.23-.07.15c7.39,5.43,13,12.15,16.31,20.85l6.35-3.27h7.65l6.55,4.66v2.9c4.65,2.49,7.7,6.78,7.43,10.65l-7.15-3.44,3.93,6.45L489,508.68l-3.12-.56c.88,3.22,2.25,5.87,1.92,8.87h-2.32c-1.09-2.33-3.65-3-5.31-5.56-.44,2.44,2.09,3.91,0,5.83L476.23,514c0,3.55,2.6,6.55,1.34,10.47l-3.1-2.21-2,1.14c-1.21-1.85-2.35-3.52-3.42-5.25-.73-1.18-1.34-2.44-2.05-3.64-.1-.18-.44-.21-.65-.3l-2.14,2.14c-.92-2.49-1.78-4.79-2.69-7.22l-1.46-.49v-7l3.4-5.78c-2.31-6.48-6.84-11.18-10.18-16.73a8.89,8.89,0,0,0,.36,3c.74,2.18,1.89,4.28,2.32,6.51.55,2.82-.6,5.86,1.05,8.59a1.7,1.7,0,0,1-.11,1.42c-1.9,3.12-.73,6.17.28,9.34-1.56,2.25-2.91,4.86-2,7.5a20,20,0,0,1,.86,3.64c.18,1.06.8,2,.93,3.1.17,1.31-.45,3,.14,3.93,1.21,2,.15,4.41,1,6.07,1.22,2.28.68,4.45.82,6.66s0,4.33,0,6.5c0,.87-.16,1.74-.26,2.79-.64-.52-1-.79-1.59-1.3a17.16,17.16,0,0,0,1,8.55l-12.11,5v16.78L444,581c1.73,5.56,6.8,6,11.69,7.67l-2.62,2.08,6.93,1.68v1c-3.05,1.52-6.36,1.8-10.13,1.44.49,2.49.91,4.58,1.31,6.64l-5.28,4.55c.79,7.3-.31,15.15.92,23.07s-.46,16.37,1.1,24.57c.81,4.26.09,8.68.91,13.1.9,4.89.1,10,1.09,15.06.75,3.78-.12,7.69.93,11.61.83,3.11,0,6.63.21,10s.74,6.71.94,10.08c.58,9.85-.94,19.75.93,29.6.72,3.77.29,7.69.9,11.59.87,5.59.11,11.36,1.06,17.08s-.36,11.36,1,17.09c.85,3.64.41,7.65.09,11.46s1,7.36,1.17,11.08c.2,4-1.29,7.67-1.14,11.59.18,4.83.12,9.67,0,14.5s1.65,9.29,1.07,14.09a62.34,62.34,0,0,0-.05,7.49c0,5.67.11,11.33,0,17s.81,11.47-1,17.08c.39,8.22-.43,16.39-1,24.58-.23,3.49,0,7,0,10.5q0,44.24,0,88.48a42.26,42.26,0,0,0,.62,5.29,23.3,23.3,0,0,0-.62,3.38c-.08,3,.23,6-.1,9s1.18,5.68,1.07,8.59H442c1.33-1.5,1-3.33,1-5.09-.45-19,1.06-38.08-1-57.08.62-16.54-1.72-33-1-49.58a4,4,0,0,0-.37-1.26l-.61,0v4.83c0,12-.19,24,.05,36s-1.1,24.1.93,36.09c.78,4.58-1,9-1,13.58q0,11.25,0,22.5H426v-37c0-12.49-.18-25,.05-37.48.23-12.19-.54-24.37.76-36.59.95-8.9.19-18,.19-27s.16-18-.05-27,.41-17.7-.78-26.6c-1.25-9.42.39-19-1-28.58-1.13-7.74.17-15.68-1-23.57-1.1-7.42.32-15-1-22.58-.89-5.18-.45-10.66-.09-16,.37-5.45-1.24-10.69-1.11-16.09a146.74,146.74,0,0,0-.05-15c-.4-5.13,1.16-10,1.17-15.09,0-5.36-.41-10.69.71-16.12,1-4.85.13-10,1.09-15.06.81-4.26.16-8.67.91-13.09.94-5.57-.33-11.43,1.2-17q0-25.74,0-51.48c0-.23-.34-.46-.63-.83a5.11,5.11,0,0,1-.37,1.44,12.88,12.88,0,0,1-1.32,1.56h-3.48l-1.46-2.49-5.45-1.48c-.55-1.42-1-2.57-1.58-4.09L418,589.1c.12-1.55.29-3.24-1.78-4.13-4.59.49-8.89-1.39-13.26-2.63-4.74-1.33-9.31-3.25-14-4.84a17.51,17.51,0,0,0-3.21-.44c2.4,2.09,4.27,3.88,6.31,5.45a20.38,20.38,0,0,1,5,5.85c1.25,2.1,4,3.31,3.88,6.59-2.74.29-4.49-1.17-6.31-2.76s-3.62-2.64-6.26-4.52l6.55,13.23h-2.57l-.66.61c-1-1-1.93-1.92-2.5-2.5,1.35,4.13,3.19,8.83,3.78,13.85-2.8.51-2.36-2.08-3.54-2.86-1.46-1-1.28-2.63-2.26-3.86v4.93c2.91,5,5.77,9.62,7.59,14.8l-1.84.38,2.1,2.46-2.1.7c3,3.12,6.34,5.82,8.07,9.82,0,.1-.09.28-.2.59h-2.6c-.22-.73-.39-1.27-.81-2.65-.31,2.21-.5,3.55-.86,6.1a23.06,23.06,0,0,0-1.54-2.73,15,15,0,0,0-2.1-2.12c-.52-.41-.73-1.45-1.94-1.12l8.55,16.48-3.07.24c-1.49-2.8-1.49-2.8-4.93-4.58,2.2,1.9,1.87,3.78.46,5.5,1.92,4,3.76,7.92,5.69,12L396.07,668l-5.25-5.8c.56,4.67,2,8.15,2,12.72-4.29-3.53-4.86-8.3-7.56-12.12-.26,1.83-.66,3.26.62,4.77.35.41,1,2.43-1.52,2.48l-5.77-14-.58.11V669c0,4.16-.28,8.35.08,12.49.37,4.3-1.15,8.34-1.14,12.58,0,3.37.54,6.74-.81,10.14-.74,1.87,0,4.29-.17,6.44s-.74,4-.93,6.09c-.3,3.2.63,6.52-1,9.58.76,5.1-1.33,10-1,15.08s-.18,10.37.85,15.61c.83,4.17.17,8.63.17,13,0,4.17.29,8.36-.08,12.49-.39,4.31,1.19,8.34,1.11,12.59-.12,7.16.08,14.33-.06,21.49s.47,14-.85,21.1c-1,5.24.3,10.67-.95,16.09-.92,4-.53,8.35-1,12.56a115.51,115.51,0,0,0-.1,19c.35,6.44-1.2,12.7-1.1,19.09s.19,13,0,19.49,1,12.73,1,19.07c-.22,24.36.91,48.72-.81,73.07-.63,9-.1,18-.1,27H355v-27c0-8.83-.13-17.66,0-26.49s-.19-17.7.78-26.6c1.22-11.1-.26-22.34,1-33.57s0-22.67,1-34.07c1.34-15.61-.37-31.35,1-47.06.93-10.42,0-21,.23-31.48s-.67-21,.81-31.59c1.13-8.09-.33-16.35,1-24.58,1.11-6.9,0-14,1-21.08.93-6.53.47-13.31.12-20s1.05-13.37,1.13-20.08a83.76,83.76,0,0,1,1.14-15c.47-2.37.31-4.79,1-7a47.61,47.61,0,0,0,1.89-10.74c.27-3.65-1.68-6.88-1.95-9.92-.16-.62-.33-1.24-.49-1.86l-.55.37c-.85,4.27-1.71,8.55-2.58,12.91l-1.21-.35c-1.38-5,.86-9.77.69-14.46l-2.71-1.12c-.44,1.55-.82,3.06-1.3,4.53-1.25,3.8-1.87,7.84-4,11.32-.29.48-1,.72-1.51,1.09-1.82-5.65,1.33-10.85.23-16.75l-5.77,7.91a3.48,3.48,0,0,1-.71-2.94,10.58,10.58,0,0,1,1.84-3.71c1.54-1.72,1-3.15-.09-4.56,1.12-2.3,2.17-4.47,3.27-6.72l-4.16,4.11c-1.37,5.63-2.92,12-4.48,18.43h-1.28c-2.23-6.89-.82-14-2.1-20.92l-.43,4.17-2-.47c.32-2.9.63-5.69,1-9.11l-2.39,3.31-1-1c-1.9,5.53-2.94,11.43-7.93,15.11h-4a7.3,7.3,0,0,0-1.11-2.08c-3.06-2.73-3.81-6.8-6-10-2.5-3.7-2.51-7.84-2.32-12,0-.49.05-1,.06-1.16,1.12-2,2.09-3.8,3-5.42l3.08-.58-3.94-9c-.15,2.75-.27,5.1-.45,8.61-4.75-6.41-6.47-12.78-8.77-19.06V612l-1.91-.14c-.5-4-1-7.93-1.47-11.87h-.39c-.14,2.36-.28,4.72-.46,7.62l-2.59-1.84c-.17-1.37-.31-2.51-.46-3.65.17,6.79-2.23,13.31-1.71,20,.12,1.47,0,3,0,4.33l-2.4,3.09c-.73-2.86-1.32-5.19-2-8-1.26,2.48,0,4.16.41,6,.43,2-.38,4,.85,6.17.86,1.49.17,3.88.17,5.8-1,.81-1.63,1.89-3.07,2.55.9-7.17-4-12-5.67-18,.1,3.83-1,7.7.74,11.42-.74,5.92,1.27,11.68,1,17.58a3.35,3.35,0,0,1-.41.91l-1.29-.09c-2.33-8.66-6.74-16.67-6.74-25.9-.13,3.56-1.88,6.73-1.62,10.34.3,4.14.14,8.33,0,12.49-.06,2.38.55,4.81-.89,7.13-.52.85-.21,2.3,0,3.44s.85,2.39.92,3.6c.43,7.52-.16,15,.86,22.59,1.2,8.92.06,18,1,27.08,1.29,12.93,0,26,1,39.06,1,12.59.22,25.31.22,38v76.47c0,12.83.19,25.66-.05,38.48-.24,12.53.74,25-.82,37.59-1.15,9.27.43,18.69-1,28.09-1.1,7.4.26,15-1,22.57-1,5.58.42,11.38-1,17.09-.7,2.82,0,6-.15,9-.13,2.71.13,5.35-.78,8.15S274,1035,274,1038v5H259a70.89,70.89,0,0,0-.08-9c-.39-3,1.06-5.66,1.15-8.59.27-9.2-.56-18.37.76-27.61,1.16-8.08-.23-16.35,1-24.58,1.08-7.08-.1-14.34,1-21.58,1.1-7.41-.14-15,1-22.58,1.08-6.92-.43-14,1-21.09.83-4.16,0-8.64.19-13s.65-8.72.95-13.09c.39-5.52-.41-11,.85-16.62.85-3.8.42-8,.09-11.95-.34-4.14,1.15-8,1.09-12.09-.08-7.16.08-14.33,0-21.49s.37-14.39-.84-21.61c-1-5.92.32-12-1-18.09-.84-4,0-8.3-.2-12.46s-.76-8-.92-12.09.25-8-.12-12,1.21-7.69,1.07-11.59c-.32-9,.88-18.11-1-27.08V660.38a7.74,7.74,0,0,1,.13-2.94c1.83-4.12.49-8.29.06-12.47-.14,2.36-.27,4.72-.42,7.2l-1.63-.43c-.14-2.93.05-5.78-.48-8.48-.69-3.6-.94-5.22,0-8.43a12.76,12.76,0,0,0-.59-7.64c.64,5.42-3,9.92-3.08,15.18-2.59,4.54-1.41,10.24-4.72,15.43.14-3.69-2.81-5.69-2.28-8.77-1.87-2.3-.36-5.37-1.59-8.47-.63,4.28-1.15,7.88-1.67,11.44h-1.43A26.74,26.74,0,0,1,245,642q0-6,0-12a11.52,11.52,0,0,0-.33-1.95l-5,11.34c-2.51-5.14-2.4-15.09.42-23.64,2.48-7.53,7.15-13.72,12.92-19.24l-9.51-8.29L241,589.42c0,4.83-.08,9.81,0,14.78a9.24,9.24,0,0,1-1.61,5.8l-1.19-.06c-.17-1.27-.34-2.58-.51-3.88l-.46,0c-.21,1.33-.42,2.65-.72,4.57l-2.77-2.3v-8c-1.69,3.08-.3,5.85-1.57,8.52-1.07,2.26-.1,5.41-.31,8.14l-1.63-.09c-.19-.94-.4-1.92-.72-3.47a72.57,72.57,0,0,0-3.73,15.17c0,.16-.54.24-1.12.48l-1.7-2.87c0-4.65-.14-9.65.06-14.63a23.29,23.29,0,0,1,1.35-7.42,85,85,0,0,1,6-13c3.61-6.05,7.77-11.77,11.06-16.69l2.45-14.44-.46-.08c-.32.68-.64,1.35-1,2.09l-1.36-.33c-.13-1.67-.25-3.19-.42-5.24-2.89,5.66-5.29,10.81-6,16.53l-2.52-.16c-.17-2.13.23-4.24-.6-5.61-1.06-1.76.2-3.62-.93-5.14l-1.21.69-1.42-1c0,2.49-.46,4.62.12,6.41.65,2-.55,3.2-.84,4.89a14,14,0,0,1-2.39-5.2c-.5-2-1.86-3.88-2.9-5.78a30.92,30.92,0,0,0-3.05-5.21c-1.26-1.51-1.6-3.88-4.54-5.26a46,46,0,0,1,4.24,26.71c-2.91-1.53-3-4.39-3.46-6.48-.59-2.46-2.34-4-3.23-6.19s-2.26-4.39-3.45-6.64l-1.26,1.17c-.42,3.42-1.15,6.75-1.16,10.08,0,4.87-.32,9.71.76,14.62.93,4.21-.05,8.68,1,13.08.83,3.38,0,7,1,10.59.85,3.19-.31,6.79,1.16,10-.63,6.25.92,12.38,1,18.58.08,7.67,0,15.33,0,23s-.29,15.34.08,23-1,15-1.15,22.58c-.11,7.36.75,14.73-.79,22.11-.8,3.84-.43,8-.06,12,.38,4.14-1.11,8-1.16,12.08-.07,5.2.56,10.38-.76,15.63-.86,3.45-.42,7.31-.09,10.95.35,3.81-1.31,7.33-1.09,11.09.32,5.53.08,11,.83,16.61,1.06,7.76,0,15.67,1,23.57,1.21,9.43-.93,19.1,1.17,28.56.44,17.52-1,35.08,1,52.57v80q0,23.75,0,47.49c0,1.61.15,3.23-1,4.58H198a84.61,84.61,0,0,0-.83-11.1,64.71,64.71,0,0,1-.09-14.46c.38-4.8-1.15-9.35-1.12-14.09.1-15.16-.07-30.32.1-45.47.06-5.86-.27-11.69.73-17.61s.24-12.35,1.05-18.56a40.92,40.92,0,0,0-.67-13.6c-.82-4-.47-8.32-.09-12.45.4-4.31-1.16-8.34-1.11-12.58.1-9,0-18,0-27,0-9.16-.15-18.32,0-27.48.18-8.86-.46-17.7.81-26.59,1.19-8.26-.58-16.7,1-25.08.85-4.51,0-9.31.19-14s.63-9.06,1-13.58c.41-5.69-.48-11.38.83-17.12.88-3.79.44-8,.1-11.95-.36-4.14,1.18-8,1.1-12.08-.12-6,.08-12-.06-18s.13-11.7-.78-17.61c-.88-5.69-.06-11.63-.23-17.46s-.7-11.71-.93-17.57c-.15-3.5-.14-7,0-10.5.55-14.87-1.73-29.68-1-44.56a4.37,4.37,0,0,0,0-2c-1.93-3.85-2.36-8.05-3.22-12.18-.78-3.74-1.83-7.38-1.76-11.25a27.6,27.6,0,0,0-.57-8.09c.31,4.43-1.94,8.53-1.42,13a8,8,0,0,1,0,2.49c-1.33,6.14-1.33,8.73,0,14.68a6.32,6.32,0,0,1-.18,1.88c-2.85-.13-2.68-2.4-3.34-5.16-.38,2.5-.58,3.83-.83,5.49-3.56-1.65-3.54-4.66-4.31-7.42l-1.72,7-2.59,1.4c0-6.85,0-13.14.18-19.33,1.37-1.41.54-3.23.83-4.82s.71-3.27,1-4.51l-8.38-6c2.38,5.45,4.5,10.29,6.56,15.31a8.52,8.52,0,0,1-2.35-.83,45,45,0,0,1-3.35-3.28c1.72,5.24,1.07,10.65,2.47,15.88h-2.41a42.48,42.48,0,0,0-2.6-5.88c-1.2-1.91-1.26-4.34-3.31-6h.08v-3.92h-.45a14.06,14.06,0,0,0,.37,3.92,57,57,0,0,1,.37,8,6.31,6.31,0,0,1-1.69-.24,8.09,8.09,0,0,1-1.29-.87c.12-4.75-3.13-8.31-2.2-11.63l-1.21-2.39-.6.21v3.81H158v-8.77h-2.62a53.61,53.61,0,0,0-1.28,6.1,49.4,49.4,0,0,0,0,7c.41,9-.37,18,.79,27.09,1.18,9.24-.09,18.67,1,28.05,1.15,9.6-.36,19.34,1,29.07.93,6.7.36,13.63.13,20.45s.77,13.72,1,20.57c.23,7.15.18,14.32,0,21.48s.51,14.38-.84,21.59c-1.05,5.57.65,11.38-1,17.08-.71,2.46,0,5.3-.16,8s-.68,5.38-1,8.08c-.31,3.19.36,6.4-.88,9.63-.72,1.88,0,4.28-.17,6.44s-.74,4-.93,6.08c-.3,3.2-.17,6.36-.83,9.62-.86,4.21-.17,8.68-1.09,13.05-.75,3.59.07,7.35-1,11.1-.8,3,0,6.29-.2,9.45s-1,6.06-.9,9.07c.2,8.53-.27,17,.75,25.59,1.26,10.59-.89,21.4,1.19,32,0,15.32,0,30.64,0,46a13.86,13.86,0,0,1-.8,3.34,14.2,14.2,0,0,1,.81,2.83c.41,7.18-.22,14.35.85,21.59,1.17,7.9-.18,16,1,24.06.93,6.36.49,13,.11,19.45s1.47,13,1.11,19.58c-.16,2.82,0,5.66,0,8.49H135a69.28,69.28,0,0,1,.82-8.61c.7-5,.28-10,1-15.08.87-5.77,0-11.68,1-17.59.86-5.19.05-10.64.22-16s.86-10.38.91-15.58q.21-19.24,0-38.49c-.11-12.7.47-25.4-.88-38.09-1-9.14.82-18.4-1-27.6-.69-3.53-.11-7.31-.11-11,0-3.5.13-7,0-10.5s-.86-7-.91-10.59c-.14-9.16-.22-18.33,0-27.49s-.4-18,.75-27.11c1-7.7.11-15.64.22-23.47s-.06-15.37.8-23.1c.84-7.57.4-15.32.12-23s.84-15.39,1-23.09c.16-6.66-.1-13.33.07-20s-.43-13.38.82-20.11c1-5.4-.4-11.05,1-16.59.68-2.66.12-5.63.12-8.47,0-2.66-.13-5.34,0-8s.83-5.39.92-8.09c.19-6.21-1.63-12.32-1-18.59.13-1.32-.72-2.7-.9-4.08-.19-1.59-.14-3.21-.19-4.82-.84,2.28-.71,4.56-.88,6.82s-.78,4.38-.93,6.59c-.51,7.18.64,14.39-.89,21.61-.78,3.66-.39,7.65-.07,11.46.33,4-1.09,7.68-1.15,11.59-.09,5.53.66,11.05-.77,16.62-.84,3.29-.45,7-.07,10.45.4,3.67-1,7-1.12,10.59-.26,6,.2,12-.74,18.12-1.09,7.06-.07,14.35-1.09,21.57s.61,14.39-1,21.59c-.71,3.17-.12,6.64-.12,10,0,3.5.13,7,0,10.5-.15,3.2-.85,6.38-.91,9.58-.15,7.33-.05,14.67-.05,22v43.49c0,7.17.3,14.35-.08,21.49s1.1,14.37,1.15,21.59c.05,5.69-.2,11.35.71,17.12,1.07,6.72,0,13.69,1.11,20.56.93,5.78-.31,11.69.93,17.6.91,4.31.47,9,.1,13.46-.38,4.64,1.11,9,1.09,13.59,0,8.83,0,17.66,0,26.49s.14,17.67,0,26.5.81,17.42-.88,26.1c-.5,2.56-.08,5.31-.08,8H118a13.74,13.74,0,0,1-1-3.09c-.15-2.16.08-4.34-.09-6.49s-.77-4.05-.93-6.09c-.36-4.36.14-8.7-.85-13.13-.86-3.8-.46-8-.1-12,.37-4.14-1.17-8-1.11-12.09.11-8.33-.1-16.67.07-25s-.31-16.71.8-25.11c1.23-9.26-.56-18.69,1-28.09,1.07-6.39-.29-13,1-19.58.93-4.57.19-9.33.9-14.09,1-6.74.3-13.68,1-20.57.79-7.25.08-14.65.21-22s0-14.37.77-21.6c.88-7.9.12-16,.22-24s-.11-15.71.81-23.6c.81-6.9,0-14,.21-21s0-14,.75-21.1c1.21-11.11-.38-22.37,1.08-33.58,1.12-8.6-.25-17.35.94-26.09,1.09-8.08-.13-16.37,1.09-24.57.93-6.28-.06-12.68.88-19.1,1-6.9-.07-14.06,1.16-21.06.39-2.27-.13-4.68.1-7,.61-6.08-1.8-11.9-1.51-18l-1.18,2.12-2.21-1.12-.34,5.14L120.45,580c-1.52,2,.61,3.87.58,5.8-3.46.4-2.61-2.42-3.65-4.24-.28,1.4-.49,2.42-.68,3.38h-1.26l-1.39-2.88v7.2l-2.76-1.09c-.56,1.94-1.12,3.87-1.69,5.86l-1.79-.33V586.6c-1.23,1.55-1.15,3.74-3.87,3.23.65-3.62,1.28-7.2,1.92-10.79l-.49-.12L103.32,582l-1.87-.13.63-4-2.46,1.41-1.16-2.45H95.94l3.56-5.7-3.23,1-.55-2.88c-2.16.8-2.74,3.68-5.55,3.86.56-2.18,1.63-3.93,1.6-6.14-2,1.4-3,3.54-5.31,4.29-1.2-2.11-.21-3.91.6-5.51s2.62-2.94,3.25-4.65c.68-1.9,3-2,3.73-4.15H84.83a16.17,16.17,0,0,1,.49-1.7,4.83,4.83,0,0,1,.6-.87l-.44-.61L81,555.37l1.4,1.79-4.5-.76v2.51H76.36c-.27-.66-.52-1.24-1.09-2.59a15,15,0,0,0,1.11,5.43l2.18.94-2.7,3.07v6.09l-2.76,1.71c1.72,1.67.67,3.77.87,5.65s.11,3.88.17,6.64L75.5,583l1.06.07s-.56,4.4-.58,4.59l3.75,3,1.19,6.44c-.55,1.11-1.26,2.48-1.89,3.89-.09.2.19.56.31.85l1.77-.94,3,3c-.71,1.41-1.48,2.92-2.29,4.51l2.19,1c-.87,2.52-1.71,5-2.58,7.55h-.92c-.29-.63-.61-1.3-1.46-3.11,0,4.24-.85,7.68.19,10.39,1.9,5,.12,9.23-.58,13.75-2.81-.08-2.07-2.75-3.61-4.17v2.42c0,3.16,0,6.33,0,9.49,0,2-.42,3.6-2.69,4.46l-.71-4.6c-.86,1.79-1,3.5-3.3,3.38-1.4-4.48-4-8.71-3.3-13.52H62v4.72c0,27-.15,54,.07,81,.1,11.36-.3,22.7.7,34.1,1.32,15.12-.53,30.39,1.16,45.57.88,8-.45,16,.9,24.11,1.13,6.72-.21,13.68,1,20.58,1,5.73-.12,11.67,1,17.59s0,12,1,18.08c1,6.4.06,13,1,19.57,1.09,7.43,0,15,1,22.59,1.23,9.75-.23,19.68,1,29.58.91,7.22.18,14.64.18,22s.21,14.68-.06,22,1.53,14.66,1.14,22.09-.08,14.66-.08,22v2H57c0-9.83.17-19.66,0-29.49s.61-19.38-.81-29.1c-1.17-8.08.26-16.34-1-24.58-1.15-7.9,0-16-1-24.07-1.17-9.61.58-19.37-1-29.09-.85-5.19-.43-10.65-.07-16S51.91,880,52,874.62c.11-10.66.23-21.33,0-32s.57-21.36-.77-32.09c-1.22-9.76.38-19.69-1-29.58-1.14-7.92.4-16-1-24.09-.93-5.51-.46-11.32-.1-17S47.85,728.57,48,722.83c.18-10-.08-20,.08-30,.19-11.53.63-23.05,1-34.58a4.24,4.24,0,0,1,.2-1.91c1.46-2.41.7-4.83.54-7.6L44.4,658H43.17c-.91-6.57,2.15-12.18,4.76-18.31-1,.37-1.57.41-1.79.73-2.08,3-4,6-6.17,8.92-.57.78-1.54,1.27-3.21,2.59.32-2,.42-2.92.62-3.79.39-1.7,1.6-3.22,1.42-5.8-1.63,2.82-5,2.72-5.4,5.79l-2.95-.48c1.79-3.1,3.35-5.77,4.86-8.47a14,14,0,0,0,.74-1.89l-.66-.39c-.88,1.15-1.77,2.29-2.24,2.9H29.72l1.18-2.54a16,16,0,0,1-.83-3.8c0-1.2.75-2.37.89-3.59s0-2.51,1-3.64c.36-.42-.05-1.48-.17-3l-3.34,3.2c-.89-2.71.08-5.18-.76-7.41l-4.18,5.77H20.67c1.61-5.48,2.69-10.79,5.31-16.05-2.3.52-3.94,2.23-5.91.8a7.67,7.67,0,0,1,2.8-3.08L22,605.15l4.29-4.21-1.64-2.19L28.38,596a13.34,13.34,0,0,0,1.67,0,13.05,13.05,0,0,0,1.82-.37l-.12-.39H24.06l-.14,2.68H22.43c-1.19-.68.73-3.06-1.73-2.9-2.39,1.29-.49,5.64-4.41,6.09-1.21-2.71,2.22-5.36,0-8.18L13.43,600l-1.28-.24-.36-4.73-3,1.43c.47-2.26.8-3.8,1.12-5.34A41.33,41.33,0,0,0,4,598a13.81,13.81,0,0,1-2.34,1.72L2.92,593H1v-2l3.16-2.46-2.34-1.1c.72-2.23,2.86-3.19,4.25-5.19l-3.88-.4v-2.68l4.8-.31L4.17,576H8.85l.06-.68a4,4,0,0,1-1.4-.41c-.32-.25-.42-.79-.82-1.6l3.1-.53.47-3,3.34,1.31c.25-1.06.48-2.06.79-3.37l2.25,1.1.56-1.64c2.5-1,4.42.53,6.51,1.66,4.12-6.3,9.38-11.26,16.66-13.93h4.21l1.67-1.8-1.48-2H40.63l-2.28-2.28-1.05,2.79L36.23,551l-.43-6h-.48l-.54,2.86-1.52.22-.58-3.56c-1,2.32-1.92,4.13-4,4.6-2-1.72,0-3,.38-4.36a25.67,25.67,0,0,1,2.29-4.36c-1.3.59-1.24.64-2.48,2.21a34.38,34.38,0,0,1-2.69,2.71l-3-2.93c.25-.45.6-1.11,1.31-2.43l-2.86,1.17c-1.6-1.35,1-7,5.15-11.77l-1.21-1.21a27.07,27.07,0,0,1-2,2.71c-.85.92-1.87,1.67-3.43,3-.08-4.33,2.81-6.5,4.41-10.38a13.06,13.06,0,0,0-3.14,2.57c-1,.92-1.89,1.88-2.83,2.82L15.8,531.7l-1-2.4-2.93.71c2.21-6.63,4.64-8.5,9-11.59l-2-2-7.52,7.52a2.23,2.23,0,0,1,.25-3l6.18-7.57L12,507.5v-2c.24-.09.54-.32.7-.25,2.64,1.19,5.27,2.43,8.45,3.91L19.8,505c4.26.7,7.3,3.4,11.21,4.56l-4.3-6c2.59-1.56,4.11.83,6.53,1.23-1.6-3-1.43-5.89-1-9.07.76.28,1.41.31,1.6.62,1.47,2.38,2.8,4.84,4.31,7.2.4.62,1.29.9,1.87,1.43,1.25,1.14,2.44,2.33,4.05,3.89h1.81v-7.78l2.85-.17q1.91,4.89,3.91,10c.55-3,1.09-6,1.69-9.25l2.21,1.1,2-5.26c2.47,1.72,2.61,4,3.28,6.35l.34-4.55c.78-.7.87.49,1.36.61s.91.15,1.53.24v6.48l.51.13c.49-1.25,1-2.51,1.48-3.75a5.48,5.48,0,0,1,3.73-3.35l.42,5.11c1.1,0,1.42-1.09,2.09-1.6a16.79,16.79,0,0,0,1.55-1.46c.62-3.93,1.23-7.46,5.7-9.46L76.55,492l-7.18,7.18c-.24-.58-.49-1.16-.89-2.1l.87-2.86c.65-.46,1.87-1.33,3.53-2.53a12.62,12.62,0,0,0-2.15-.62c-1.59-.1-3.18-.14-5.23-.22a17.09,17.09,0,0,1,8.94-7.52l6.15-1.15,1.08,1c.43-1.57.44-3.26,1.94-4.31.37-.26.27-1.18.51-1.61a17.49,17.49,0,0,0,3.21-1.81c-2.32-.83-2.75.51-3.21,1.81-2.18-.51-3.69.75-5.42,1.49-1.41.61-2.87,2.26-4.73.91.72-3.57,3.15-5.51,7.16-7.46-4.84.1-8,1.28-10.71,3.79-.11-.11-.32-.22-.33-.35-.07-.65-.08-1.31-.12-2.2l5.52-4.67-6.28,1.22v-2.51c9.44-8.14,23-4,29.36,8.74l5.07-1.37c.38-2.79.79-5.76,1.26-9.23-1.74-2.91-5.55-3.95-8.3-6.29s-6-3.85-9.55-6.07l-1-2c.57-.06,1.29-.36,1.78-.15,1.62.71,3.17,1.48,5,.64l-2.36-1.89L93,448.57l-3-1.73c-2.6,2.58-6.55,3.6-8.87,6.77a36.79,36.79,0,0,0-2.62,5.26,4.14,4.14,0,0,1-1,.11,13.3,13.3,0,0,1-1.72-.27l3.5-7.33c-3.85.19-3.32,5.39-7.49,5.7.54-1.5.93-2.57,1.36-3.74-.48,0-.81-.1-.93,0-3,2.77-5.75,5.64-7.48,9.39-.3.63-1.15,1-2.23,1.92l-.62-3.28-2-1a42.45,42.45,0,0,1,20.45-22.15c4.88,0,9.67,0,14.45,0,.24,0,.47.44.94.91l3.58-6.63c-1.62-.89-1.65.74-2.39,1.08a16.76,16.76,0,0,0-2.77,1.75c-.75.56-1.41,1.23-2.23,2-2.19-2.57.74-3.52,1-5.06.43-2.57,3.33-1.9,4.21-4.19a9.42,9.42,0,0,0-2.1.43c-2.65,1.25-5.24,2.63-7.91,3.83a19.75,19.75,0,0,1-3.66.77c2.11-4,5.33-5.9,7.78-9H80.5c.74-1.09,1-1.83,1.44-2.07a40.37,40.37,0,0,1,12.77-4.28c1.85-4.26,2.8-5.36,6.28-7.25.25-2.55-2.51-2.11-3.47-3.49H88.16c-1.77,2.18-3.81,4.48-5.6,7-1.65,2.31-3,4.82-4.75,7.64-1.3-2-.7-3.68-.79-5.22s0-3.32,0-4.49c3.35-6.72,6.27-13.38,15-13.65H85.43l-3.89,3.23c-.23-3.59,1.44-6.29,5.19-8.62h4.61l-3.73-6.5c2.29-.69,3.59.44,4.83,1.58a20.3,20.3,0,0,0,4.69,3.7l-3.62-8.06c5.79,2.07,8.89,5.56,11.09,10.78.94-4.46.16-8.41-.67-13.08,3.82,2.38,4.89,5.7,6.61,8.82.39-1.27.73-2.4,1.13-3.72-.19-.48-.49-1.24-1.12-2.87a19.26,19.26,0,0,1,7,4.48l1-1.08,9.71,7,2.09-.13c-2.1-2.19-4-4-6-6.11,2.85-.47,3.21-.35,7.18,2.42l-6.06-12.51c1.49.56,2.31.62,2.73,1.06a37.39,37.39,0,0,0,5,4.93,56.68,56.68,0,0,0-2.4-6.34c-1-2-1.17-3.63,1-5.41.27,2.19.94,4.05,3.32,5.06-1-3.66-1.89-7.35.39-11.51l3.52,8.21V360.12h2.87q1.88,11.4,3.78,22.87c.42-3.92.69-7.93,4-11.93a31.36,31.36,0,0,1,.44,9c-.09,2.63-.63,5.24-.58,7.88l3.92-8.82H156v4.32c1.64-2.42,2.53-4.83,5.69-4.46.78-3.93,4.09-6,6.61-8.84h3.47l.47,3.24c1.85-3.4,2.48-7,5.73-9.73v10.44l2.64-4.07.54,4.85,2.4-1,.83,2.29c1-1.88,1.8-3.8,4.22-4.25,1.13,2.43-1.89,3.56-1.58,6l1.67-.62c1.26,3.92-.92,7.58-.85,11.41-1.71,1.47-.51,3.44-.87,5.14-.19.89-.4,1.78-.54,2.4l4.12,8.85a16.59,16.59,0,0,1,5.21-8.29c.84-7.45,4.75-17,10.61-22.63,2.22,2.27-1.31,4.34-.12,6.84,1.57-1.35,3-2.73,4.6-3.91s3.13-2,4.91-3.09v2.43c-1.65,2.21-3.36,4.49-5.57,7.46,4.47-.65,7.69-3.29,11.6-2.76.67,2.17-1.17,3.13-2.13,3.55-2.05.89-3.11,2.61-4.56,4.15,4.92-1.48,9.41-4.27,14.74-4.44-8,6.43-17.36,10.54-25.63,16.41l-1-1-7.09,11.56v4.44l3.69,1,1.92-1.92c.15,1.8.27,3.33.46,5.6a20.73,20.73,0,0,0,1.33-2.42c.26-.73.14-1.64.53-2.27a16.92,16.92,0,0,1,2.54-2.52c.26,2.42.44,4.07.63,5.85l3.68-4.76v7.59c1-2.12,1.51-3.28,2.14-4.35.71-1.22,1.55-2.37,2.37-3.6l1.15,1.19-.61,3.68.48.14,3.13-4.9h2.12l-1.81,7.76c2-2.68,3.91-5.23,6.07-8.1l1.65,2.33c2.12-3.79,5.49-6.39,8.79-9.19,0,4.86-2.93,8.58-4.7,13.32,2.56-1.6,4.59-2.86,6.64-4.11.06,0,.26.14.59.31.12,3.34-4,5-3.76,8.78,4.7-3.72,7.82-8.93,14-11.8-1.17,2.9-2.19,4.53-4.15,5.79a14.55,14.55,0,0,0-3.7,4.12c-2.86,4.13-5.58,8.35-8.34,12.54-.76,1.16-1.46,2.36-2.6,4.2a4.36,4.36,0,0,0,3.32-2.25,27.67,27.67,0,0,1,8.79-8.8c2.29-1.48,4.17-3.57,6.38-5.2.75-.55,1.93-.52,3.2-.81L228,453.14l4.74,6.13A45,45,0,0,1,238.59,446a22.27,22.27,0,0,1,3.2-3.27l1.82,1.23c3.45-4.4,6-10,12.65-12.29-1.15,4.13-4.59,6.28-5.39,10.21,2.13-.33,2.66-2.65,4.62-3,1.48-.28,2.72-1.85,4.71-3.31l-.78,4.27,1.51.56.09,1.86L258,446l-1,1c-2.27,3.26-4.55,6.52-7,10l-1.57-.89c-2.17,3-1.5,7.43-5.19,10.55-.17-2.21-.28-3.78-.49-6.52-.82,2.42-1.36,3.81-1.75,5.25s-.68,3-1,4.58a28.1,28.1,0,0,0-.78,4.95c3-3.71,7.76-4.31,11.45-6.94,3.1.65,6-1.55,9.39-1.05,5.66.86,11,2.38,15.47,6.12a15.44,15.44,0,0,1,1.87,2.39c-.78.26-1.24.57-1.63.5s-.79-.51-1.21-.81c-.15.13-.55.32-.53.46.38,3.68.81,7.34,1.27,11.37,1.93-3.18,2.35-6.81,4.6-9.68s3.8-6.56,6.55-9.26,5.29-5.66,9.5-7.34c-.56,4.83-3.1,8.64-4.22,12.88s-2.8,8-3.59,12.3a79.06,79.06,0,0,1,17.39-13.83c.59-.35,1.55-.05,2.72-.05-2.22,3.41-4.22,6.36-6.1,9.37a43.53,43.53,0,0,0-4.81,9.71c.63-.27,1.45-.37,1.86-.83,3.79-4.35,9.2-5.87,14.2-8,1.51-.64,3.53-.1,5.72-.1-.65,2.51-2.39,3.65-4.23,4.9-3.25,2.2-5.55,5.37-9.12,8.52A5.74,5.74,0,0,0,311.5,494c3.56-3,12.55-6.89,16.65-8.1s8.36-.64,12.81-1c-.87,2.47-2.91,3.25-4.6,4-6.49,2.89-12.2,7-17.89,11.12a15.18,15.18,0,0,0-1.58,1.56c2.54,1.22,4.54-1.16,6.83-.87.35.05.78-.71,1.17-.71,5.72,0,11.34-1.79,17.08-1a33.57,33.57,0,0,1,5,1.66c-6.87,4.34-12.76,8.51-19.84,10.63.75,1.1,1.49,2.21,2.56,3.79H338v1.72l-6.81,1.63-.52,1.48-1.17.06-.95-2-.45.07c.3,2.11.73,4.21.88,6.33s0,4.27,0,6.83c-.92-.32-1.86-.42-1.92-.72a45.35,45.35,0,0,0-7.17-15.28h-3.86c2.54,4.67,6.09,8.81,6,14.37,1.24.71,3.08.68,2.93,2.88l-2.53,1.25,4.53.47v1.37L323.94,537c3.06,0,5-.24,6.94.07A28.48,28.48,0,0,1,336,538.9c0-2.42-2.33-3.73-2-5.93.38-2.68-2.27-5.13-.33-8.32.83.76,1.91,1.31,2.27,2.16,1,2.27,1.64,4.66,2.37,7a27.05,27.05,0,0,0,4.47,8.3l3.31-1.62-2.49-1.17,3.55-4.27a12.28,12.28,0,0,0-2.71,0,8.26,8.26,0,0,0-1.94,1.06c-.26-.6-.57-1-.47-1.14a20.24,20.24,0,0,1,7-6.54L347.53,527h-5.81l-2.94-3.39,7.65-4.57h-7.32V516.2l3-.44a6.66,6.66,0,0,1-.95-1.16,7.9,7.9,0,0,1-.37-1.49l-3.92-.28c.22-.76.24-1.52.48-1.59,2.37-.72,4.27-3,7-2.16l1.79-2.94c7,3.45,14.51,5.55,20.83,11.22-.39-1.88-.68-3.32-1-4.75s-.71-3.05-1-4.59.27-3.07-.84-4.7c-.56-.83.65-2.87,1.23-5a17.53,17.53,0,0,1,2.56,2.49c.83,1.3,1.41,2.75,2.63,5.23.3-2.78.47-4.4.64-6l1.42-.14,2.91,10.27c.27-1.64.47-2.84.67-4l1.77-.46V496.2l1.59-.25,4,8.69c2.34-2.28,1.8-6.56,5.22-9.27a62.83,62.83,0,0,1,.23,8.4c.05,2.64,0,5.28,0,8.84,1.77-3,2.59-6.09,4.56-7.33,2.34-1.48,3.73-3.61,5.56-5.66,1.35,4,1.25,5.07-1,13,2.15-1.77,2.75-3,3.22-6.81l2.1.88,5.52-4.14v-6l2.76,1.49,1.63,9c.53-.92.94-1.65,1.26-2.22.53-4.42,1-8.56,1.55-13.08l2.43,1.06c2.27-1.15,1.62-4.94,4.91-6.11.3,1.2.54,2.19.8,3.22.25-.19.59-.3.65-.51,1.59-5.1.89-10.37,1-15.57.06-2.49,0-5,0-7.44-2.8-.26-2.8-.26-4.54.57l-1.57-1.57-10.66,1.4c-.56,4.28-1.05,8.08-1.56,12.06l-1.17,1.09L405,478.72v7.73l-3.12-1.76V476h-.71v7.6c-.64.22-1,.48-1.21.39a16.31,16.31,0,0,1-1.91-1.18v-3.65l-.72,0c-.15,1.14-.29,2.28-.48,3.77l-2.92.18v-4l-.6-.05-.59,3h-1.41c-.17-.88-.34-1.8-.52-2.77-.25.06-.59,0-.69.2-1.34,2-1.67,4.81-4.4,5.71-2.39-2.45,1.21-4.58-.07-7.26l-4.62,6v3h-2.87c-.17-2.13-.55-4.4.93-7.33-3,1.86-5.59,3.24-7.93,4.92s-3.77,4.51-6.69,5.81c.32-11.66,10.46-24.19,27-27.33,1.52-2.58,3-5.07,4.86-8.31l-5.58,2.46c-1.05-3.23-.52-3.88,5.2-6.49-2.48-.51-8.31-.75-9.59-.42-2.76.72-5,3.11-8.38,2.82,0-2.42,2.13-3,3-4.66l-3.21-.59c.5-.88.74-2,1.35-2.27,2.56-1.1,4.41-3.63,7.51-3.66.52,0,1-.68,1.71-1.15-6-2.67-6-2.67-12.87-2.42-2.39.15-3.26,3.75-6.45,2.48.11-2.8,2.32-4.27,3.88-6.2,1.75-2.15,4.42-2.6,6.64-3.28s4.86.4,8.14.8c-3.38-2.11-6-3.68-8.57-5.41a33.61,33.61,0,0,1-3.38-3.05c3.58-1.6,6.79.28,10.32.5-1.54-2.15-4.88-1.54-5.19-4.83l3.83-.36c.77-4.21,1.54-8.36,2.35-12.78a14.54,14.54,0,0,0-5.25,8.74H379a66.81,66.81,0,0,1,6.19-16.51,23.76,23.76,0,0,1,2.82-3.83c1.26-1.5,2.32-3,1.84-5.05l-4.21-1.56c.47-4.79.92-9.24,1.41-14.16-3,3.28-4,5.91-4.33,11.29a5.1,5.1,0,0,1-2.63-4.08c-.27-4.32-.43-8.65,1.26-12.91s4.2-7.95,6.65-11.78c3.28-5.14,8.76-7.71,12.48-12.2.22-.26.89-.16,1-.17-1.11-2.41-2.14-4.77-3.28-7.09s-2.37-4.55-3.74-7.14l-1,2.5-2.18-.92-.81.7c-.77-1.13-1.54-2.28-2.66-3.94v-6.92c-1.85,1.79-1.85,1.79-1.95,9.5-2.16,1.67-1.62-1-2.71-1.71C381.3,337,379.39,345,377.48,353h-1.21c-.41-2.38-.84-4.85-1.27-7.31,2-2.33.58-5,.36-7.57-.6,2.28-1.19,4.56-1.78,6.82a8.52,8.52,0,0,1-2.52-2.58c.38-1.37.74-2.67,1.18-4.21h-5.89c-3.28,3.24-2.64,8.16-4.72,11.88l-1.53-.07v-5.7l-3.41,5.65c-1.64-4.35,1-7.32,1.12-10.95-2.83,1.75-2.47,5.62-5.17,7.36-1.31-6.19,1-12.56,7.24-20.28-3.55.51-5.92,2.92-8.73,4.41a51.58,51.58,0,0,0-8.28,5.31c-2.58,2.08-4.66,4.77-7.15,7s-2.82,6-6.76,7.72c.9-4.93,1.69-9.51,4.33-13,3-3.92,4.8-8.44,7.66-12.39a28.17,28.17,0,0,1,15.44-10.64c-3.62-.79-6.8-.22-10.07-.5a7.69,7.69,0,0,0-.34-1.26,1,1,0,0,0-.35-.4l-2.46,2.46v-6.29l-2.05-.71c-.6-2.69.8-5,1.69-7.41-.57-.22-1.15-.43-1.69-.62-.05-.41-.24-.84-.1-1,2.22-3.08,2.92-7.32,7.11-9.25L347,287.13c.43-2.07,1.84-3.61,4.08-4.85,2.44-1.33,5.22-2.06,7.37-1,2.52,1.2,4.81.25,7.12.85l3.74-5.45a17.14,17.14,0,0,0-2.53,1.09c-1.45,1-2.2,2.89-4.36,3.5-1.15-2.89.62-4.52,2.12-6.32,1.27-1.54,3.9-4,5.56-4.49,2.23-.67,4.52-1.12,6.85-1.68,0-.57-.07-1-.1-1.45l-13.95,2.6a4.67,4.67,0,0,1,3.21-3.9c4.4-2,8.5-4.36,11.64-8.18.65-.79,1.84-1.14,3-1.81h2.76c1.9-4.09,4.88-5,9.29-2.74.28-4.92-3.09-9.24-1.37-14.28.43.12,1.37.17,1.44.45,1.07,3.93,4,6.7,6.08,10,.76,1.2,1.59,2.35,2.52,3.72l1.76-2c-2.09-3.45-4.19-6.9-6.45-10.61,2.65-1.32,4.54.42,6.53,1.29s3.7,1.89,5.54,2.84l-1.91-10.51c3-.59,2.67,2,2.93,3,.75,2.75.75,5.7,1.18,8.54a40.15,40.15,0,0,0,1.19,4.4l1.09-1.84,3.37-.36c-.9-3.65-3.28-6.29-6.18-8.77a12.34,12.34,0,0,1,1.35-1.1,4.52,4.52,0,0,1,1.07-.29c.5-1.58-2.17-3-.18-4.92,3.61,2.33,6.27,5.68,9,9.07-.43-4-3.6-6.67-5-10.77a7.3,7.3,0,0,1,2.29.43c3.36,2.24,6.51,4.71,8.5,8.88.64-3.79,1.21-7.13,1.77-10.43,2.91.08,2.54,2.27,3.26,4.48.71-2.93,1.22-5.51,4.48-7.2-.51,4-2.59,6.87-2,10.19-2,3,0,6.6-1.13,9.54-1.32,3.42-.52,6.63-.57,10a62,62,0,0,1,9.55-14.87h2.26c-1.61,4.91-2.92,9.75-5.32,14.28l3.15,1.58,10.47-11,3.08.2c-1.09,1.72-1.88,3-3.29,5.23,4-1.42,6.43-3.74,9.76-3.9,3-.15,5.4-3.34,9.24-2.16a8.93,8.93,0,0,1-1.07,2c-1.83,1.93-3.78,3.77-5.61,5.7-.36.38-.42,1-.8,2.09,6.31-3.83,11.88-8,20-6.84-6.83,6.09-13.55,11.33-19.31,17.83l6.38-2.65c2.21-1.85,4.84-4.27,7.71-6.36s5.77-3.65,9.47-6l-.54,3.61c.05,0,.43.31.6.21,1.58-.89,3.15-1.53,5.4-.37-1.93,2.45-3.82,4.76-5.62,7.14-1.68,2.21-3.65,4.24-5.32,7.57l6.31-3.2h4.41c-1.22,3.24-3.56,4.95-6.47,6.58,3.77.72,7.77.19,10.79,3.6l-10.69,3,1.32,1.5-3.51.54,3.25,2.25V287c-4-1.22-7.86-1.76-12.27,0,3.34,3.65,8,5.26,9.74,9.85h15.18l1.77,3.7-6,2.21h13.13l1.49,2.88-3,.63,7.19,3.06c-.08.61-.12.92-.17,1.33-3.43,1.13-6.34-.89-10.42-2.15,3.9,4.61,5.12,9.12,4.4,14.11a1.72,1.72,0,0,1-2.7-1.15c-.74-4-3.08-6.87-5.74-9.66a9.53,9.53,0,0,1-1.24-2.36c-3.1-.44-3.1-.44-5.26,1,.55,3.33,1.12,6.82,1.75,10.63l-2.24-.82-1.77.92-1.09-2.2-1.63,2.77a24.36,24.36,0,0,1-3-9.77,14.62,14.62,0,0,0-.9-2.89h-5.83c2.77,1.06,3.41,3.83,4.67,5.91s2.56,4.29,1.76,7.45l-3.29-2.37c-.75.75-.48,3.49.57,5.78-.47,1.39-.92,2.71-1.37,4a7.31,7.31,0,0,1-3.47-3.52v6.11a15.55,15.55,0,0,1-2.09-1.46,5.51,5.51,0,0,1-1-1.58,9.32,9.32,0,0,1-.31-1.83c-.51,1.05-.82,1.67-1.13,2.32h-2.26c-.19-.93-.4-2-.7-3.4-.67,2.81-1.23,5.18-1.92,8L467,332.69V328l-2.8,1.32c2.22,2.29-.73,4.24-.8,6.8l-1.28-2.47c-.7.62-1.09.82-1.07,1,.29,2.36.67,4.72,1,7.09s-1.87,11.52-3.55,15.68c-.93-2-2.06-3.48-2.36-5.14a42.9,42.9,0,0,1-1-10.07c.3-4.79-1.42-9.34-1.16-14.09,0-.65-.77-1.34-1.34-2.27-1.38,1.73-2.94,2.9-4,4.84s-2.94,3.12-4.54,4.72a14.28,14.28,0,0,0,.62,4c1.45,5.4,2.88,10.84,4.41,16.21,1.41,4.94,1.5,10.21,3.86,14.88-.69,2.51.83,4.69,1.09,7.08a29.32,29.32,0,0,0,1.92,6.17c.77,2.2.63,4.62,1.88,6.73.44.74.11,1.95.11,2.95a67.43,67.43,0,0,0,.28,7.47c1.54-3.69,5.69-5.1,7.21-8.76.29-.71,1.89-.86,3.42-1.49a9.66,9.66,0,0,1-.45,2.32c-.43.92-2.15,1.26-1.3,2.62l3.27-3.42H474a4.36,4.36,0,0,1-.27,1.52,14.12,14.12,0,0,0-1.81,2.86c2.91-1.24,5.3-3.56,9.26-3.59l-7.51,9.85c4.26.3,8.14-1.9,12.29-.47.17,1.82-.94,2.25-2.53,2.69a74.89,74.89,0,0,0-14.51,6c-1.63.84-2.83,2.52-5.05,2.48a72.4,72.4,0,0,1,14.85,2.15c5.45-2.48,11.18,1.51,17.31.06l-.84-2.32,4.66-2.85c-1.63-2.22-3,1.15-4.5.32-.13-.28-.44-.69-.34-.83,1.79-2.66,2.19-3,5-4.51-.1-1.14-.2-2.35-.33-3.89-2.5,1-3.54,3-5.24,4.29l-.64-.59-4.08.73c.64-2.85,2.89-3.71,3.87-5.23l1.51-6.39-1.95-.69c-.12-.75-.26-1.67-.42-2.72l-1.87,1.14-1.72-1.44c-.56-1.81.22-3.78-1-5.61-.51-.74.49-2.53,1-4.62-4.18,2.39-7.75,4.44-11.6,6.63-1.45-2.52-.31-4.73,1.27-6.31a101.5,101.5,0,0,1,8.28-6.82L480,371.53v-2.29l5.15-.42c-5.4-3.18-10.53-5.84-17.14-7.17l3.67-2.8h7.21l-1.12-2.19c2-1.4,3.72-.43,5.68.52l.79-1.84c2-1.15,4.24-2.28,6.71-.34,4.61-.54,8.52,1.92,12.74,3a26.65,26.65,0,0,1,4,1.83c.64-1,1.41-2.13,2.31-3.49-2.74-1.1-2.71-4.81-5.87-5.81s-5.53-3.13-7.7-5.57-4.31-4.55-6.46-6.83c-.08-.09,0-.33,0-.86,3.25-.57,5.76,1.29,8.64,2.5a8.14,8.14,0,0,1,.37-1,12.75,12.75,0,0,1,.75-1.21l-1-2.5h4.35c7.07,2.6,10.57,8.39,14.92,13.62-1.06-2.8-2.08-5.62-3.2-8.39s-4.37-4.63-3.73-8.34c5.79,2,7.24,3,9.48,7.24.94-3-.61-4.92-1.78-7a23.9,23.9,0,0,1-1.28-3.88,20.33,20.33,0,0,0,1.82,1.45,4.27,4.27,0,0,0,1.12.2c.29-.62.61-1.28.93-1.94,1.88-.38,4.87,4,6.05,9.18,1.62-3.17-1-5.65-.56-8.46s.11-5.87.11-8.8h1.79c.51,1.84,1.05,3.77,1.76,6.29.57-1.68,1.37-3,1.36-4.31a10.69,10.69,0,0,1,1.53-4.95h2l2.13,3.3c.61-3.3,1.16-6.23,1.73-9.27l2.44-.12,2.78,9.24c1.31-3.15,2.54-6.13,3.78-9.13h2.13c3,3.49,1.2,6.92.09,9.83.2,2,.35,3.57.5,5.11-.28.12-.82.23-.82.35,0,5-1.76,9.93-1.16,15,0,.21.37.38.54.53l1.44-1.36ZM490,437a2.46,2.46,0,0,0,2,3c-.54.73-1.08,1.46-1.54,2.1-3.64-1.06-5.54-3.82-7.6-5.76L474,445.21l1,1.4L473.19,448h-3.73l-4.59,4.59V457l-5.43-5.44c-.36,1.51-.59,2.51-.88,3.72-.76-.39-1.15-.62-1.58-.8s-1.06-.39-2.05-.74v5.88l-3.42-2.43-4.59,3.74c5.72-.11,11-2.16,16.63-2s10.93,1.55,16.51,1.45l-7.08-3,.22-1.17c3.7-.94,7,.7,10.53,2a22.13,22.13,0,0,1,5.87-12.39c3.36-3.68,7.91-5.05,12.25-6.66,2-.75,3.33-1.48,4.18-3.39a27.82,27.82,0,0,1,3.26-5.53l1.8-3.27-3,.15A14.78,14.78,0,0,1,509,430c-2.24.49-3.89-1.24-5.87-1.77-.14,1.73-.26,3.27-.43,5.37l-3.85-2.85c.45,2.35.81,4.2,1.14,5.88-2.37,1.21-3.36-.69-5.13-2.14v6.89L492,440a3,3,0,0,0-1.62-3.25l-2-3.08C487.55,436,488.89,436.42,490,437ZM393.23,293.72c-.37,1.26-.65,2.21-1,3.34l4-.31a24.43,24.43,0,0,0-3.05-2.75c-.79-1.25-1.53-2.44-2.32-3.6-.09-.14-.44-.1-.9-.2.07,1.36.13,2.59.19,3.8A11,11,0,0,0,393.23,293.72Zm-282,152.17,3.61,2.92c-.26-2.5,2.25-3.62.72-5.81-.75,1.56-1.29,3.33-3.7,3.37.18-1.64-.07-3.14.54-4.1a3.25,3.25,0,0,0,.13-3.51l-3.36,4.87A27,27,0,0,1,111.22,445.89Zm126.1,40.86c4.27.79,7.79,3.54,11.88,5.76l-5.86-11.16a82.59,82.59,0,0,0-6.25,6.06l-3.52,3.5,7.17,2.54A30.35,30.35,0,0,1,237.32,486.75ZM438.5,742c.76-5.31.7-47.35-.07-50.93-.65,5-.59,47.06.57,50.93v33.69c0,2.32.22,4.56,2.84,6.28h-.46a44.48,44.48,0,0,0-1.33,5.62,49.86,49.86,0,0,0,0,6.47c.1,4.37-.55,8.8,1,13.06-.77,11.69,1.37,23.3,1,35-.14,4.65,0,9.31,0,14a8.86,8.86,0,0,0,.37,1.8,69.29,69.29,0,0,0,.54-14c-.36-4.78,1.26-9.34,1-14-.28-5.85,1-11.79-1-17.54.76-8.55-1.25-17-1-25.52a8.85,8.85,0,0,0-1-4.78c0-2.64.15-5.3,0-7.92s.36-5-.73-7.62c-.93-2.25-.22-5.19-.23-7.83,0-5,0-9.91,0-14.86C440,743.05,440.36,742,438.5,742ZM31,589.82l6.34.72c1.7-6.39,3.25-13.09,7.9-18.58l-2.47-2.89v-3l-.59,0-.36,6.15-2-.45c.29-3.23.58-6.36.89-9.82-4.55,4-11.31,4.87-13.87,11.39C32,577.94,30.91,584.1,31,590.8V590a4.6,4.6,0,0,1-1.44,0,9.3,9.3,0,0,1-1.66-1.26l.27,2.35A3.35,3.35,0,0,0,31,589.82Zm278.38-3.75c2.48,1.1,5.32,1.83,7.47,3.47a30.65,30.65,0,0,1,5.7,6.58c1.74,2.4,2.48,5.32,3.17,8.16s.19,5.8.29,8.71h-1.45c-2.68-4.66-4.4-9.87-8.56-14.6a9.3,9.3,0,0,0,0,2.54A81,81,0,0,1,319.49,612c.83,3.49,1.91,6.94,2.42,10.48.31,2.15.71,4.57-1.05,6.68l2.33,3.26c1.12-2,2-3.65,3.05-5.56l4.55.75c3.63-7.66,11.2-11.79,16.62-16.52,1-5,1.79-8.93,2.59-12.89l-.63-.27-4.76,5.89c-2.8.08-2.8.08-4.83-1.59a17,17,0,0,0,1-2.51,4.53,4.53,0,0,0-.2-1.76,10.27,10.27,0,0,1-.49-2.39,10.79,10.79,0,0,1,.71-2.5h-2.27l-3.31,3.17c-.9-.27-1.79-.27-2-.67a27.21,27.21,0,0,1-3.82-9.28c.52-1,1.07-2.08,1.69-3.16s1.2-1.93,2.05-3.28c-2.88.43-4.23,3.44-7.34,3,.51-2.25,2.38-3,3.13-4.63,1.59-4.64,5.76-7,9.3-9.8-.54-3-2.54-5.34-2.56-8.27,0-.39-.72-.76-1.54-1.58v5.12L331,565.59a21.26,21.26,0,0,0-.05-3.93,22.44,22.44,0,0,0-1.41-3.56h-2.18c-.74,2.1-.78,4.45-3,6.67-.69-3.71-1.25-6.73-1.84-9.89a97.38,97.38,0,0,1-2.61,10.1c-.36,1-.21,3.06-2.64,3.07l-1.73-6a15.31,15.31,0,0,0-.53,3.85,19.73,19.73,0,0,1-1,4.07c-.18.5-.9.81-1.52,1.33-2-8.21-2.9-15.86,2.67-22.37-2.05-2.45-3.87-4.63-5.73-6.84l-1.6,8.73-1.78.59c1.68,1.93.89,3.79.81,6-3.82-1.77-4-5.53-5.7-8.14s-2.24-6-2.37-10c-1.57,3-2.59,5.29-3.89,7.38-1.17,1.88-2.65,3.55-4,5.39,1.18,2,2.19,3.91,3.43,5.69,2.52,3.64,5.28,7.12,7.72,10.81C305.48,573.82,308.32,579.49,309.38,586.07ZM220.49,512c1.92-4.73,6.36-5.46,11.09-6.5l-2.8-3.27c-3.49,1-5.85,4.32-10.7,3.24l6.79-5.1c-1.84-2-4,2.48-6.13-.33,2.07-2,4.67-2.71,7.4-3.42a12.27,12.27,0,0,1-1.08-3.17c-.07-1.41-1.4-1.78-1.8-2.77-.31-.77-.06-1.77-.06-3.19l4.55,4.18c2.35-5.15,4.84-10.42,9.4-14.27-1.26-2.56-2.41-4.91-3.32-6.78L226,464.84a50.27,50.27,0,0,1-.8,7.8c-.3,2.45-1.29,5.08-.14,7.72-.77,1.12-1.31,2.86-2.4,3.34-2.73,1.18-4.09,3.71-6.23,5.42-.15.11-.11.45-.24,1.05l3.69-.89v2.38c-2.57,1.12-5.26,2.26-7,5.88,2.52-1.29,4.4-2.28,6.31-3.22,1-.51,2.07-.71,3.24.95-4.51,3.63-8.87,7.28-14.32,9.28C212.23,507,217.16,508.12,220.49,512Zm52.39-37.59c-10.47-3.75-19.47-.56-27.9,6.09l8.78,7.42c1.12-1.62-2.53-3.4.37-5.14a58.18,58.18,0,0,0,4.88,4.66c2,1.57,2.33,4.1,3.82,5.94,1.31,1.61.54,4.33,3.15,5.74.23-6.81-3-12.73-3.3-19.33,2.16,2,4.78,3.31,5.84,6.2C269.71,482,270,477.7,272.88,474.4Zm86.87,127.24c-1.61,3.46-3.23,6.44-4.38,9.59-.69,1.91-1,4.08.36,6,.27.4.11,1.1.18,2.07L353,618.14c-.14,3.84.52,7.59-1.64,10.87l-1.08-.15c-.21-.91-.43-1.84-.65-2.78.39,2.81-2.78,5.07-1.2,8.12a36.56,36.56,0,0,1,11.75-9.45c-1.63-1.7-3.17-3.1-3.22-5.9l2.89.82c.14-1.63.27-3.18.49-5.68,2.56,3.18,2.38,6.51,4.08,8.94,2.32-2.81,2.32-2.84-.44-7.46,0-2.26.07-4.58,0-6.91-.08-2.14.37-4.35-.39-6.92-.94,2-1.22,3.68-3.28,4.83C360.1,604.7,359.94,603.35,359.75,601.64ZM440,476.14a25.46,25.46,0,0,1,0,3.86c-.7,3.63,1.28,6.94,1.08,10.54-.21,3.8-.05,7.62-.05,11.44,0,1.82-.12,3.66.05,5.46a6.61,6.61,0,0,0,.89,2.13l5.9-5.89c-2.55-7-2.51-14.79-4.22-22.74ZM78.09,501.67c-2,4.34-2.43,9.39-5.87,12.71v6.25c.62-1.31.93-2,1.24-2.64l1,.87c1.25-4,2.5-7.93,3.69-11.71h3.72l.4,3.76c3.24-4.9,6.42-9.72,9.68-14.64l-2.2-1.49c-1.67,2.59-3.16,5-4.74,7.3-.32.47-1,.69-1.86,1.24V498.4l3-4.6c-4.48,1-6.45,4.33-9.16,6.67Zm32.68,8.73,1.06-.65,1.73,2.19c.46-3.37.46-3.37-1.32-8-1.36,3.55-2.66,6.89-4.23,11l-2.36-5.2c-1.24,2.5-2.24,4.51-3.37,6.77l-1.08-.83-8.3,8.3h5.34c3.76-4.86,8.38-2.4,12.81-2.61l-5-2.92v-1.14a8.78,8.78,0,0,1,5.74.42Zm63.48,31.08,6.22,9.22,3.59-14.7c-1.82-2.67-3.24-4.77-5.18-7.64.51,5.49,3.38,9.86,1.7,14.63h-1.09c-1.64-3.64-4.45-6.75-4.69-11l-3.1,1.81,3.43,5.4Zm-68.49-42c-4.77,2.72-8.54,4.95-10.9,8.4s-4.82,6.71-6,11L101,510.39C101,506.94,103.21,503.74,105.76,499.45ZM482.9,296.74c-3.67-1.29-7.26-2.24-10-5.06l-12.77,8.79,4.11,2.73C469.37,298.08,475.67,296.14,482.9,296.74ZM221.65,512.27c9.21,6.09,12.24,5.63,16.66,2.7l-5.66-5.73ZM84.89,539.94c.41,2.14.76,4,1.22,6.46l-3.17-1.34.25,3,8.45-1.42c.56-1.59,1.07-3,1.54-4.41,2.56-1.14,5-2.06,7.57-.5.31-1.15.61-2.3,1-3.55H97.18l-.42,1.6H92.1l-.18-2.19-6.2-3.68c1.35,3.85,4.81,6.15,5.28,10.24C88.09,543.69,87.35,541.05,84.89,539.94ZM404,355.24v8.25c0,1.66.61,3.69-.13,4.89-1.58,2.56-.4,5-1,7.74l9.05-6.93c-1.48-.72-4.42.83-4.94-2.78l1.71-3.77c-1.17-2.71-2.25-5.2-3.32-7.66Zm-8.79,47.68c-1.26,3.95-2.52,7.91-3.81,12H390v-3.8l-.47,0c-.85,2.53-1.69,5.05-2.59,7.74l7.19,2C393.31,414.78,395.66,409,395.21,402.92Zm9.62-66.65c-1.3-2.48-1.3-2.48,3.27-9.71l-2-.93-.45-2.82c-3,.57-2.62,3.78-4.31,4.42,1.57,5.34-.7,10.94,2.21,15.82C404,341,404.33,339,404.83,336.27Zm47.05,216.36c-4.81-6-6.2-13.46-8.67-20.56v11.8l2.18,1.79c.81,2.79,1.32,4.57,1.81,6.29C449,551.9,450.11,554.05,451.88,552.63ZM568.1,389l-1.62-3-1,.88-1-.82c-3.59,2.72-4.94,6.66-6.79,10.89l8.69-4.86ZM312.2,517.32c.2,5.09-3.67,8.95-1.62,14.08l3.08-2.34,3.11-.18C315.27,525.1,313.87,521.55,312.2,517.32Zm-96-40.51,1.26,5.35,3.38-1.5V466.88C219.15,470.41,217.61,473.69,216.16,476.81ZM419,349.63c0-1.79.11-3.46,0-5.1s2.2-2.69.64-4.42c-1.36,2-5.2-.55-5.65,3.42.73,2.32,1.53,4.89,2.29,7.33ZM104,529.27c-3.67-1.14-7,.55-10.44.84L91,532.45l4.1,2.68ZM441.83,876.19c-1.29,8.87-1.06,35.56,0,39.21ZM512,455.27a10.65,10.65,0,0,1-1.59,7c-1,1.55-2.45,3.51-.9,5.68A86.58,86.58,0,0,1,518,451c-.06-1.17-.12-2.59-.19-4h-.67c-.13,1.34-.26,2.69-.42,4.23L515,449.66c-.52,1.93-.94,3.55-1.38,5.17ZM291,576.68c-2.29-6.09-4.43-11.81-6.54-17.44-1.32,1.58-1.32,1.58-1.27,4.18,3.41,4.42,5,9.39,6.27,14.53ZM131.07,429l-4.57-6c-2.15,1.25-4.08-1.88-6.69-.51,4.41,2,6.52,6.48,10.83,9ZM292.6,566l-.67.24,2.57,10.55,5.68,1.19Zm62.77-260.84c-1.44,1.72-4.94,1.19-5.48,4.51,3.24,1.24,5.89-1.74,8.76-.59l1.58-3.92ZM92.1,476.58l-8.21,5.91,4.37,2.15,5.63-6.23ZM373.72,591.19c-2.35,5.67-5,11.37-5.75,17.8l1.75-.12C370.43,602.8,373.91,597.48,373.72,591.19ZM128.82,448.66l6.07-1c-1.51-2.94-3-5.77-4.56-8.91Zm116.1,84.69c-2.91,3.35-5.37,7.07-8.76,10.06-.24.22.05,1,.07,1.37l8.69-6.61ZM105.86,418.68c-1.13-2.26-2.21-4.44-2.87-5.78l-4.92,4.92ZM94.74,497.17a32.5,32.5,0,0,1-4.22,6c-1.22,1.27-1.78,3.2-2.47,4.9-.2.5.19,1.23.34,2A18.34,18.34,0,0,0,94.74,497.17Zm94.89-1.26c1.49-4.4-.74-8-2.47-12.63v12.63Zm-13.78-5.72c-1.35,2.87-5.27,4.71-3.45,8.7h3.45ZM436.61,356.11l-.61.13c0,4.92.06,9.85,0,14.77a6.13,6.13,0,0,0,1.75,4.84,5.45,5.45,0,0,0,.27-1,36.12,36.12,0,0,0-.89-9C436.53,362.67,436.74,359.36,436.61,356.11ZM196.79,459.76c-1.15,1.13-2.72,2-2.65,2.74.21,1.95-1.77,1.05-2.06,1.92l4.71,5.28Zm152,94.12-1.39.28c.43,2.41.43,4.86,1.34,6.9,1.1,2.5-2.12,4.48-.32,6.84h2.66C350.27,563.15,349.53,558.55,348.76,553.88ZM521.43,446.64c-1.53,6.49,1.09,12.32.63,19.27.92-1.8,1.35-2.62,1.8-3.5-.1-.12-.49-.34-.51-.59C522.89,456.88,523,451.88,521.43,446.64ZM131.72,434.8c.72,3.63,3.83,3.68,5.33,5.56s3.79,3,5.73,4.41C140.64,440,136.6,437.46,131.72,434.8Zm55.8,95.28L183,525.53l-1,1.08c1.05,2,2,4,3,5.88.09.18.44.23.78.39Zm230,49.88c2-1.31,1.7-3,1.19-5.12L415.81,576l-3.8-2C412.24,577.86,416.14,577.7,417.47,580ZM297.78,595.13c.17-4.85,3-7.07,5.21-9.78-1.81-.58-3.48-.77-4.72.86a16.82,16.82,0,0,1-.8,3.74C296.82,591.38,296.86,592.65,297.78,595.13ZM548.64,413.67c-2.86,3.07-1.08,6.22-1.73,9a9,9,0,0,1,1.26.32c.51.25,1,.57,1.7,1C549.47,420.63,549.09,417.42,548.64,413.67ZM435.12,355.9A23.55,23.55,0,0,0,437,352c.23-1.12-.4-2.66.16-3.41a4.58,4.58,0,0,0,.89-3.16c0-1.11,0-2.22,0-3.83l-1.7,1.6C435.93,347.14,435.58,350.94,435.12,355.9ZM407.5,565.35c-.55,2.93-1,5.08-1.39,7.35l3.67,1.42C409,571.21,408.37,568.71,407.5,565.35Zm-64.9-5.2-.44.06V568l2.94-.22ZM406,513l1.66,3.21c2.21-2.8,1.17-5.52,1.35-9.1ZM287.18,556.6,290.4,564l.74-.26L288.52,554ZM211,480.83l1,.22c1-3.2,2.67-6.28,1.53-10.65-.63,2.35-1.11,4-1.51,5.64S211.3,479.24,211,480.83Zm-31.87,17.29,3-1.73c-.53-1.56-1-3-1.53-4.47l-1.43.29Zm228.59-176.9,1.74,3.61,4.5-3.61ZM276.83,614.16H276c0,2.12-.08,4.24,0,6.35s-.4,4.29.81,6.29Zm-45-69.82c.41,3.74-.2,6.67.59,10.33C234,548.08,234,548.08,231.84,544.34ZM218,436.46c-.11-3.1.06-5.74-.17-9.12l-2.48,6Zm69.13,168.35c.64-3.87,1.18-7.78,0-11.65ZM48.77,577.17H46.23l1.27,8.67C48,582.46,48.37,579.9,48.77,577.17Zm-2.1-17.08-.5.15v10.58l1.51-2.23Zm349.06-13.47c2.85,1,4.77-.08,6.54-1.46.46-.36.55-1.21,1-2.28Zm17.1-178.13c1.5.85,1.48-.88,2.27-1.1a9.63,9.63,0,0,0,3-1.09c.52-.37.57-1.4.84-2.14C416.65,365.51,413.73,365.68,412.83,368.49ZM415,444.54c1.62,1.29,2.15-.39,2.85-1v-3.5h-1.47C415.88,441.62,415.44,443.06,415,444.54ZM357.82,560.63l-2.77-2.78c.66,1.76,1.49,3.93,2.31,6.11l.46-.08Zm168.06-161c-1-1.31-1.92-2.59-3-4.08-.73,1.3-1.24,2.19-1.75,3.09C522.68,399.09,524,400.86,525.88,399.62ZM195.61,497.11l-.44.13v8.13l1.93-2.07C196.54,501,196.08,499.05,195.61,497.11Zm304.84-83.63,3.86,1.42,2.57-2.58ZM373.7,283.94l1.89-4.67-5.74,4.08c.36.36.47.57.59.58C371.43,284,372.43,283.94,373.7,283.94Zm31.66-36.75c.93,3.62,1.69,4.95,3.57,6.75C409.35,250.68,406.71,249.21,405.36,247.19ZM422,446.73l-1.32-1.65-4.51,3.69h3.56l-.49-.48Zm48.24-15.5c-2.64-.86-3,2.62-5.1,2,.56,1.11,1,1.92,1.51,3ZM338.76,628.56l-4,7.88c1.29-.63,2.29-.79,2.49-1.27C338,633.24,339.41,631.4,338.76,628.56ZM248.32,582.1c-.22,3-.22,3,1.5,5.84V582.1ZM388,563.38c5.44-1.93,5.44-1.93,5.79-4.39Zm1.74,59.56.5-.52-2.8-4.38c-.63.72-1.13,1.31-2,2.25ZM180.84,418.37c-1.13,2.15-1.84,3.48-2.51,4.83-.09.17,0,.45,0,.71h2.46ZM283.25,576a23.62,23.62,0,0,1-.28,3.31c-.22.89-.7,1.72-.93,2.6-.08.3.25.72.31.87l2.43-2ZM515.83,437.9v-4.81c-2.61,1.09-1.66,3-1.82,4.81Zm-279.1,61.83c-.54-2.73-2.13-4.23-4.35-4.34ZM404.08,557c1.09,0,1.75,0,2.4,0,.12,0,.23-.2.66-.6l-3.06-3.67ZM261.17,581.81c.62-2.54,1.14-5.13,0-7.65Zm-102.88-192,1.34.26c.57-2.06,2.48-3.76.88-5.88C159.77,386,159.06,387.83,158.29,389.78Zm-45.8,28.69-.48-1-2.77-1.36c-.59,1.68-.3,2.95.7,3Zm26.71,7.62-1.36,2a5.27,5.27,0,0,0,3.3,2.44ZM428.83,355.2c-.67,2.2-1.14,4.46,0,6.65Zm47.37-47.11-1.36,2a5.27,5.27,0,0,0,3.3,2.44ZM376.91,285.6c2.07-.48,2.63-1.08,2.67-2.67ZM25.17,591.8c.67-2.2,1.14-4.46,0-6.65Zm367.17-40.55h-4.2v2.68Zm-204-26.43h.52V520l-1.46.24C187.72,521.89,188,523.36,188.31,524.82ZM89.17,552.17c1.9.62,3.83,1.23,5.65,0Zm295.2-266.34-1-.89c-.39,1.55-2.72,1.38-2.15,4.39Zm34.17,68.84c-.64,1.6-1.13,2.8-1.83,4.52C419,358.07,419.4,356.84,418.54,354.67Zm-287.9,45.59c.16-2.95.16-2.95-1.94-3.9ZM106,559.81c-1.94.47-3,1.09-3,2.89Zm290.75-.52,3.35.85c-.09-1.36-.15-2.24-.2-3.11Zm26,4,3.35.85c-.09-1.36-.15-2.24-.2-3.11Zm-97-47.85v-3.71l-2.24.87ZM223.86,451.52c1.89-.62,3-1.73,1.58-3.64ZM373.25,564h.5v-5h-.5ZM99.51,495.79l2.8-1.56H97.55Zm138.58,35.78,2.5-3.05-2.5-.62ZM107.38,442.12l.66-.31-.26-3.73a2.33,2.33,0,0,0-.8,1.31,2.54,2.54,0,0,1-.49.72Zm303.87-5.56v3.71l2.24-.87ZM353.66,561.08l-.49.07V564l2.36-.35c-.78-.61-1.26-.83-1.49-1.2A4.66,4.66,0,0,1,353.66,561.08ZM103.14,435.64l-2.26.75.36.67,2.92-.4ZM403.74,571v-2.12l-1.82.37.37,1.75ZM395,429.44c.92.67,1.23,2.21,3.08,1.12C397.12,429.89,396.81,428.35,395,429.44Zm11.69,1.71c.24-.63.38-.82.34-.89-.48-.77-1-1.51-1.49-2.26a1.76,1.76,0,0,0-.33.34c-.61,1.17.4,1.66,1,2.32ZM399.9,536.4l.31.65,3-.37-1.24-1.24ZM236.25,468h.5v-4h-.5ZM353,568.81,355,567.7l-1.85-2.13C353.09,566.88,353,567.76,353,568.81ZM241.25,586h.5v-4h-.5ZM187.83,424.18l-.86,0,.24,3.67.62,0Zm274.59-7.11c-.53.55-1,1-2,2l4-.27ZM422.9,454.9l-3.31,1.93h3.31ZM302.83,595.19H302c.09,1.23.17,2.46.26,3.69l.61,0ZM116.07,448.58c.55.53,1,1,2,2l-.27-4ZM51.29,552.47c.85,2.12.85,2.12,3,2.21Zm226.54,55.7-.86,0,.24,3.65.62,0Zm139.06-54.78-2,1,.39.71,2.92-.4Zm29.95-163.48v-3.72l-1.72,3.72ZM53.16,562.78c.82-1.74,1.24-2.64,1.74-3.69H53.16ZM528.61,441.89l-1-2-.71.39c.12.89.24,1.77.4,2.92ZM389.17,386.81H390l-.26-3.69-.61,0Zm163,55,.86-.05-.24-3.64-.62,0ZM411.75,345h-.5v4h.5Zm51.44-26.31c-.26-1.83-.38-2.7-.53-3.69L461,316.47Z" transform="translate(-1 -1.88)"/><path style="fill:#517CC8" d="M747.65,414.07a9.89,9.89,0,0,0,.35-3.37c5.23,2.31,10.82,2.69,15,8-.24-1.82-.15-2.86-.53-3.7-1-2.26-2.2-4.42-3.37-6.71,2-1.45,2.31,1.79,4.3,1.64l1.27-2.17c3.83,1.92,4.77,6,7,9.27.55-3.7,1.08-7.3,1.62-11h2.6c.16,6.44,3.32,12.38,2.5,19a27.42,27.42,0,0,0,.6-8.34c-.15-2.49-.67-5-1.15-8.31A11.9,11.9,0,0,1,780,410c2.48,3.26,3.22,7.25,4.45,11.25,2-4.32,1.78-9.38,6.29-13.29a87.92,87.92,0,0,1-.25,18,31.12,31.12,0,0,1,3.73-4.53c1.58-1.32,2.18-3.46,4.07-4.4s2.36-3,4.16-4.15a30.23,30.23,0,0,1,6.18-3.38c-2.79,5.06-5.2,9.11-7.54,13.22s-4.17,8.52-6.44,13.26c3.38,0,5.28-2.69,8.2-3v2.76l-4.05,1.83c3.66,1.3,6.51,3.09,6.15,7.83l-2.43-1.09L796,447.46c1.37,1.94,3,2,5.05,1,3.72-1.87,7.51-3.57,11.3-5.3a5.46,5.46,0,0,1,1.74,0c-.23.75-.23,1.48-.59,1.78-1.72,1.46-2.87,3.48-5.18,4.38a7.36,7.36,0,0,0-3.17,3.11,21.88,21.88,0,0,1-7.72,7.75,18,18,0,0,0-3.91,3.84c-1.25,1.45-2.81,2.53-3.71,4.44-.63,1.34-2.67,2-3.9,2.87.06,1.1.09,1.75.12,2.47.35-.06.63,0,.8-.15a33.49,33.49,0,0,1,14.67-5.69,9.38,9.38,0,0,0,4.08-2.12,49.11,49.11,0,0,0,4.24-4.17c.32-3.55,2.7-6,4.63-8.62,2,.29,2.89-3.69,5.65-1.4l-2.32,4.93c2.34.34,1.82-1.79,2.7-2.63a27.43,27.43,0,0,0,2.59-3.32c1.09,3.21,1.09,3.21-1,8.23h5.79c0-1.07.13-2.34.13-3.61,0-16-.18-32,.1-48,.11-6.18,1.13-12.34.95-18.58s0-12.66,0-19v-19c0-6.34-.71-12.77.16-19,1.46-10.39-.18-20.81,1-31.08.85-7.24.09-14.45,1-21.58a62,62,0,0,0,.78-10.6A107,107,0,0,0,830.48,256c-.73,2.37-.23,4.82-.52,7.2-.27,2.17-.89,4.3-1.39,6.64l-1.49.19V265L825,266v-8.92l-.46,0c-.58,2-1.17,4-1.73,5.94h-1.53c-1.16-3.95,2.18-7.81.3-12-1.42,1.71.55,4.31-1.54,5.6.3,2.13-.37,4.09-1,6.1s-.56,4.09-1.27,6-1,4.08-1.94,5.66,0,4.71-3.51,4.71a9.55,9.55,0,0,1-.15-6.08c.82-2.11.69-4.09.83-6.15.13-1.9-.19-3.75.9-5.64.9-1.58-.81-3.94,1-5.57a.58.58,0,0,0,.07-.46c-.78-5.69,1.39-11.26.66-17-2.28,5-4.93,9.78-6.67,15a28.94,28.94,0,0,1-1.44,2.9c-2.93,6.28-5.85,12.57-8.81,18.93H797c-.47-11.46,2.09-22.3,5.87-33-.27-.72-1.07-1.76-.83-2.42,1.34-3.64.75-7.57,1.93-11.2,1.09-3.37,2.25-6.73,3.34-10.11.31-1,.46-2,.85-3.67L806.44,216c-1.63-2.82,1.29-4.58,1.72-6.93s2.12-4.75,3.34-7.07,2.39-4.33,3.57-6.45a2.38,2.38,0,0,0-.45-.43.4.4,0,0,0-.34.09l-6.17,6.16c-.05.62-.13,1.41-.21,2.33l-1.62.44c-.81-4.66,1.7-8.1,4-11.68-3-.13-4.14,2.15-5.78,3.41L803,194.51c1.92-3.33,7.44-9,10.7-10.43,1.14-.5,2-.9,2-1.63,2.16-1,3.75-2,4.9-2.66.59-1.51,1-2.65,1.51-3.82h4.77V168.1l-.37,0c-.59,2.33-1.17,4.66-1.71,6.78h-2.37c.23-2.33.6-4.5.6-6.67s2.26-3.9.28-6.33a53.84,53.84,0,0,1-5.8,15.29,26.6,26.6,0,0,0-1.81,5.33c-.12-.45-.62-.45-1.43-.45-.87-6.19,2.9-11.79,2.76-18.59-2.6,4.85-4.74,9.07-7.08,13.18s-4.07,8.65-6.11,13-4,8.32-5.82,12.69a7.4,7.4,0,0,1-.85-5.89c1.75-6.4,2.57-13.12,5.63-18.85-.26-1.87-.58-3.56-.69-5.27s.63-4.08-.19-5.4c-1.13-1.8,1.42-3.23-.38-4.85-.3.69-.57,1.29-1.12,2.56-.71-3.53,0-6.59-.6-10.08-1.25,3.25-2.27,5.92-3.29,8.55l-1.42-.16v-3.67l-.59-.09-1.86,5.85-1.37.09-.39-5.06h-.45c-.55,2.6-1.11,5.2-1.69,7.9L787,168v-9.83l-.5,0c-1.17,4.22-2.41,8.43-3.5,12.68-.39,1.51-1.15,2.17-3.11,2.23a79.09,79.09,0,0,0,1.62-15c-.84,2.12-1.56,4.31-2.58,6.34-.77,1.53-1.84,2.83-2.06,4.68-.1.82-1.33,1.51-2.45,2.7-.34-1.74-.55-2.76-.77-3.89l-1.43,1.26c-.82-3.77.36-7.06,1.47-10.33a55.54,55.54,0,0,0,2.73-9.79,19.94,19.94,0,0,0-1.44,2c-3.69,7-7.38,13.94-11,20.95-.63,1.24-1.1,2.33-3.16,1.81,1.1-3.22,2.16-6.34,3.23-9.46l-.74-.34c-1.65,2.7-3,5.62-5,8s-2.61,5.77-6.67,7.63a21.46,21.46,0,0,0,1.22-3.08,19.68,19.68,0,0,0,0-3.1c-2.65,4.39-5.36,7.88-6.25,12.44H745v-7.32l-5.82,9.27c-.59-5.5,1.34-9.46,2.62-13.65a19.31,19.31,0,0,0-3.81,4.91c-1.29,2-2.63,3.92-4,5.84-1.18,1.66-1.12,4.15-3.38,5.31-1.93-3.54.89-6.72.32-10.09-2.88,2.36-4.18,4.5-5.44,8.82l-1.2-1.2c-1.58-5.38,2-9.11,3.37-13.68-1.51,1.3-3,2.61-4.54,3.88s-3.18,2.57-5,4v-3.18c1.43-2.29,2.72-4.45,4.09-6.55a25.48,25.48,0,0,0,3.38-6.2l-9.58,7.33c0-4.84,3.34-7.1,6.11-10.12-.75-.06-1.48-.34-1.77-.1-3,2.48-6,5.05-9,7.69l-1.81-1.6,2.46-2.91c-.07-.26,0-.9-.33-1.11a2.15,2.15,0,0,1-.61-2.71,91.49,91.49,0,0,1,4.2-8.26c1.94-3.42,4.79-5.94,7.9-8.36a45.81,45.81,0,0,1,8.8-5.38c2.82-1.33,5.6-2.79,9.06-2.5.71-2.12,1.4-4,2-5.92,1.49-5.11,3.55-9.78,8.68-12.36.4-.2.44-1.1.68-1.78.44.38.78.68,1.13,1a7.07,7.07,0,0,1,7.23-3.15c.2-.57.41-1.15.66-1.82l1.23,1.08.5-1.49c2.31-.89,4.4-2,6.64-2.47s4.6-.09,7.11-.09c-9.22-7.25-20.87-3.37-25.4,3h-2.34c.62-1.33,1.19-2.57,1.78-3.85-2.65-.45-4.11,3-6.75,1.54,1-2.54,2.59-4.35,5.89-6.44l-3-.43c3.06-4.93,8.19-6.32,13.61-8.33-7.07-1.64-12.58,1.34-18.25,3.65.15-4.35,2.93-7.07,9.09-8.71l-3.88-.76c.48-.81.69-1.69,1.11-1.8,2.85-.76,5.15-3,8.34-2.87,2.94.14,5.9,0,9.81,0l-5.83-3c-2.07,0-4.81-.42-7.34.13-2.17.46-4.09,2-6.57,3.34-.08-1.28-.12-2.06-.18-3,3.09-2.92,5.7-6.62,10.66-6.64,4.28-2.92,8.07,1.33,12.32.51L759.86,73c4.52-1.76,7.94-3,11.76-1.12.36-.74.8-1.65,1.31-2.68l-5.81,1c-.5-4,1.43-6.86,2.77-10.06-2.74-.66-2.94,3.11-5.69,2.82a6.09,6.09,0,0,1,.3-1.92c1.59-3,3.91-5.43,5.83-8.14a9.77,9.77,0,0,1,5.86-4.07,16.58,16.58,0,0,1,4.63-.82c1.64,0,3.28,0,5.14,0-2.14-3.72-4.07-7.18-8.94-5.89V40.48l2.57-1.33.92.83c.16-.25.53-.6.46-.77-.67-1.55-1.41-3.08-2.3-5l2.54-.29c1.52,2,2.61,4.39,5.68,5.29-.46-2.12-2.6-2.68-3.14-4.64,2.81-1.66,4.76.2,6.78,1.29L792.25,33h9.64c-1.36-2.56-5.36-1-6.07-4.66,2.75-.4,5.31-.8,7.9.47l1-1a6.59,6.59,0,0,0-.18-.66c-1.3-3.34-1.3-3.34-3.53-4.5V20.64l3.36-2.46-4.13-4.78c1.54-.16,2.53-.57,3.25-.3,4.91,1.87,4.89,1.92,9.38,1.72L809.64,12c2.31-2.56,4,.31,6,.15,1.82-.16,3.76,1.15,5.93,1.91l.77-1.87,2.51-.43c-.31-.82-.61-1.58-1-2.62h2.88c3.75,3.66,7.53,7.59,10,13.39.92-5.68,1.74-10.77,2.66-16.38l2.81-1.79c-1,8.56,3.19,14.83,6.55,22.15,1-4.92,1.82-9.25,2.66-13.52h1.56V29.76l.73.06a31.29,31.29,0,0,1,.71-3.62A35.13,35.13,0,0,1,856,21.9c.58-1.26,1.45-2.4,1.94-3.69s.56-2.77,1.09-4.05c.39-.93,1.24-1.65,2.51-3.26.29,2.69.48,4.34.72,6.57,2-6.08,5.51-10.62,9-15.14.35-.45,1.5-.28,2.61-.45l-1,2.58,2.45,1.15-3.22,4.88,2,1c-.38,1.08-.75,2.15-1.3,3.69l6.14-4.37,3.13,3.1-1.2,2.62c.47.11.81.3.92.2,3-2.54,5.91-5.1,8.67-7.51h3c-3.23,4.59-6.7,8.56-9,13.11-2.16,4.26-5.45,8.3-5.56,14.16l3.69-4.73,2,1c1.39-1.94,2.58-4.35,4.45-6s2.23-5.24,5.8-5.86c.55,3.77-3.17,6.41-2.66,10.5l5-4.91c1.28,1.79,1,2.86-.11,4.11a29.24,29.24,0,0,0-2.41,3.89l2.95,1.89c1.48-1.3,3.22-2.8,5-4.33h3.26c0,.9.32,2-.06,2.67a48.2,48.2,0,0,1-3.1,4.23,11.83,11.83,0,0,0-.9,1.82c1.55.21,1.82-1,2.46-1.46.91-.72,1.65-1.66,2.51-2.44.71-.65,1.53-1.17,2.23-1.83a22.58,22.58,0,0,0,1.55-1.8h2.89A73.39,73.39,0,0,1,904.68,45a16.45,16.45,0,0,0,3.37-.62c4.09-1.79,8.13-3.69,12.6-5.74.17,1.14.29,2,.37,2.57l-8.95,7.88c5.72-.42,10.11-3.35,14.91-1.76v1.16l-4,2c0,.17.07.34.11.51L931,50v3c-4.27,1.16-7.64,3.76-11.84,7h8.72v2.43l-7.65,3.18,6.29.69c-1.77,2.6-4.63,2.65-7.11,4.79h10.83c-.28.83-.3,1.51-.6,1.67C924,75.78,918,78,912.05,80.59l9.71,1.94c-1.14,1.16-1.81,2.4-2.42,2.37-3-.14-5.43,1.48-8.15,2.15-3.73.93-7.38,2.21-11.06,3.35,0,.17.08.35.11.52h4.45q.88,2.6,1.65,4.8c6-2.42,11.91-5,19.35-4.66-1,1.36-1.53,2.73-2.09,2.73-3.21,0-5,2.39-7.58,4.17,3.09.17,6-.35,8.74,1,2.06,1.05,4.16,2,6.24,3v3a5.08,5.08,0,0,0-5-.91c-3.91,1.34-8.2,1.4-12.58,3.89,5.42,0,10.32-.46,14.18,2.32l2.38,3.64c-1.83-.35-3.34-.66-4.86-.94s-3.27-.58-4.91-.87l-.22.66,4,1.77c.08.38.18.84.28,1.34l1.44-.75,1.3,2.76c-4.36.36-8.83-.62-12.86,1.52,4.7,3.08,9.25,6.3,11,12.36-1.32.08-1.53-1.16-2.29-1.51s-1.76-.73-3.55-1.46c2,3,3.85,5.22,3.53,8.8l-9.44-7.52-.55.52,4.13,7c.52,5.69,3,11.1,2,17-.63.82-1.33,1.71-2.31,3-.71-2.51-.83-4.73-1.88-6.33-3.24-4.94-6.39-9.94-9.49-15.58.14,2.95.14,2.95,1.86,5.89-.58,4,2.37,8.15.25,12.93-.95-.91-2-1.44-2.21-2.19-1.28-5.13-3.89-9.84-4.23-15.31-.15-2.27-.88-5.3-4.65-5.44-2-.07-3.7-1.51-5.38-2.61-1.86-1.23-3.61-2.65-5.67-4.19-2.54,5-5.22,9.45-7,14.2a15.12,15.12,0,0,1-3.49,5.84h-2.45c-4.46-3.42-.78-7.23-1.66-11.42l-3.27,9.36c2.69,5.42,5.23,10.54,7.83,15.76l6,2.36c4.56-.42,8.33,2.53,11.18,6.18,1.81,2.3,4,4.26,5.76,6.65-.14.4-.28.84-.44,1.33l-1.15-1c-1.48,1.66.47,2.91.58,4.36L896,179.52c2.63,1.93,2.42,5.33,4,7.85.23.37-.16,1.11-.3,1.83l-2.87-1.15c.49,2.25,2.19,3.9.8,5.88a4.44,4.44,0,0,0-.71-.54,2.57,2.57,0,0,0-.72-.13c1.58,5.88,1.84,8.44,1.09,10.84L894.93,203V208l-1.67-.2-1-2.8c-.24,2.28-.39,3.64-.65,6.12-1.81-2.55-3.06-4.28-4.12-5.77l-2.19.69c-.33-1-.52-1.53-.86-2.51-.57,2-1.31,3.64-1.4,5.3s.5,3.28.9,5.58L881.51,213l-1.89-6.76a26.86,26.86,0,0,0-.63,6.58c-.07,2.08.3,4.2-.27,6.23l-1.48-.09c-.15-.87-.29-1.79-.45-2.76l-2.66-.31c-.53-1.85-1.07-3.79-1.62-5.72l-.6.07v5.64h-2.74c-.47-2.94-.35-6-1.53-8.48-1.34-2.78.3-5.71-1.35-8.28-.29,2.46-.27,4.92-.32,7.37,0,.19-.47.36-1,.74l-2-1.7v-3.2c-.85-2.22-1.89-3.67-1.86-5.1.12-4.53-.63-9.06.81-13.61,1.55-4.91,2.43-10,6-14.06.7-.8.81-2.14,1.19-3.23-5.47,5.68-7.8,13.07-11.65,19.62-.3-.3-.53-.55-.78-.76-.06,0-.23,0-.49.07v5.87c1.11,3.56,4.32,6,3.47,10.22l-4.15-2.47c1.46,2.66,3.53,4.69,4.88,7.13,1.58,2.86,3.79,5.86,1.77,9.22.35,1,.64,1.74,1.08,2.91-3.35-1.36-7.54-5.44-9.37-8.75-.07-.11-.45-.05-.72-.07v4.37c4.09,2,7,5.35,9.76,11,2.16,4.43,4.55,8.76,6.53,13.28a20.21,20.21,0,0,1,.61,2.15c-3.69-.46-5.37-3.19-7.69-5.14-.17.65-.41,1.06-.3,1.24,3.65,5.85,5.19,12.52,7.55,18.88a4.89,4.89,0,0,1-.19,4.39,20.23,20.23,0,0,1-2.37-2,32.75,32.75,0,0,1-2.22-3.38c.39,6.84,4.18,11.91,3,17.83h-2.15l-6.3-9.85c-1.48,3.08,2.23,5.91,0,9.18-2.91-2.47-4.17-6-6.46-9v6.72l-1.59.08c-.93-2.6-1.89-5.27-2.84-7.94l-.47.05V264c0,8.33.16,16.66,0,25s.78,16.41-.85,24.6c-.84,4.25,0,8.68-.92,13.1-.89,4-.35,8.34-1,12.57-.8,4.93-.38,10-1,15.08-1,8.28-.23,16.68-1,25.07-.87,9.59-.2,19.31-.2,29v58.48c0,9.67-.28,19.34.08,29s-1.11,19-1.09,28.58c0,14.67-.08,29.33.06,44,.05,5-.67,10.07.84,15.12.9,3-.1,6.32.93,9.6.92,3,.35,6.32,1,9.56.91,4.24.81,8.69,1.13,13,0,.5-.2,1.19,0,1.47,1.67,1.86.69,4.08,1,6.11s.81,4,1,6.09a74.59,74.59,0,0,0,.87,9.12c.8,4.07.3,8.34,1,12.57.94,5.59.22,11.34.95,17.08,1.1,8.6.13,17.34,1,26.08.91,9.07.38,18.31.15,27.47s.41,18.36-.76,27.6c-1.25,9.75.48,19.7-1.08,29.57-1,6.27.12,12.67-.91,19.1-1.1,6.89.18,14-1.1,21.06-.87,4.77-.05,9.67-.88,14.6-1,5.72-.18,11.69-1.12,17.56-.81,5.12.74,10.47-1.1,15.57.67,7.24-1,14.37-1,21.58,0,10.83,0,21.66,0,32.49,0,11,.17,22,0,33-.21,10.69.6,21.38-.78,32.1-.89,6.88-.47,14-.09,21s-1.33,13.69-1.11,20.59c.16,5.16,0,10.32,0,15.49H818v-30c0-9.83-.16-19.67,0-29.49s-.36-19.7.77-29.6c1.26-11.1-.4-22.36,1-33.58,1.14-8.93,0-18,1-27.08,1.29-12.27-.45-24.68,1-37.07,1.19-9.93-.54-20,1-30.08,1-6.26-.38-12.69,1-19.09,1-4.87-.17-10,1-15.08.88-3.72-.21-7.7,1-11.6.75-2.43,0-5.29.18-8s.89-5.06.91-7.59c.1-12.32,0-24.66,0-37s-.13-24.33,0-36.49-.76-24.41.88-36.59a68.57,68.57,0,0,0,0-12c-.16-4-.9-8-.92-12.08q-.12-39.48,0-79c0-3.55-.49-6.72-2.92-9.85-.91,2.23-1.72,4.22-2.52,6.15h-1.21c-2-2.93,1.75-5.93.06-9.27-.76,3-1.67,5.54-3.8,7.67a4.47,4.47,0,0,1,.18-5.09l-2.08-.74c1-2.14,2-4.18,3-6.14l-1.42-1.67c-.27,1.26-.48,2.29-.67,3.21h-2.21L802.8,525.31c-.1-.1-.26-.27-.34-.24s-.24.21-.56.53c1.7,4.92,6.33,8.62,7.36,14.78-3.14-2-5.61-3.6-8.3-5.34,1,3.57,1.93,6.73,2.8,9.75l-1.48,1.34-12.41-12.41a49.9,49.9,0,0,0,1.54,7.11C793,545,795,549,796.62,553.17c1.88,4.92,3.9,9.74,4.58,15.15.45,3.54.67,7,.82,10.74l-2.73-.22c-.33-.86-.5-1.31-.68-1.76l-.68.12v8.7l-1.59.13c-.6-1.62-1.24-3.32-2.11-5.67-.29,2.39-.54,4.06.74,5.6.1.12-.18.56-.31.95h-2.39c-.89-3.2-1.78-6.33-2.8-10l-2.36-1.41c-.12-1.09-.25-2.27-.41-3.63-.76.72-1.25,1.17-1.89,1.76v5.19l-1.84.48c.59,8-1.58,15.82-1,23.89.48,6.85.24,13.7.83,20.59.86,10.1.1,20.31.25,30.48s-.48,20.38.83,30.59c.77,6.07,0,12.32.17,18.48s-.38,12.06.83,18.11c.74,3.68.14,7.63.14,11.47v11c0,3.84.18,7.68,0,11.5s1,7.39,1,11.08c.13,17.16.06,34.33.06,51.49V920.45c0,17.16-.17,34.32,0,51.48s-.84,34.06.84,51.09c.65,6.6.11,13.32.11,20H769c.3-4.2-.34-8.38.84-12.63.89-3.16.58-6.69,1-10.06.76-6.47.28-13,1-19.58,1-9-.88-18.1,1.15-27.07.36-14.52-.43-29,.84-43.59.85-9.76.16-19.66.16-29.49v-29.5c0-10,.16-20,0-30-.2-9.7.51-19.38-.79-29.11-.88-6.55-.06-13.31-.2-20s-.08-13-.77-19.61c-1.23-11.62.16-23.35-1-35.08-1.06-10.9-.1-22-.27-33s-.64-22.06-1-33.08c-.06-2.17-.09-4.34,0-6.5s-.53-4.51.9-6.64a2.9,2.9,0,0,0-.23-2.78c-1.1-1.22-.49-2.51-.69-3.75-.64-4,1.2-7.66,1-11.59a108.42,108.42,0,0,1,0-13.49c.39-4.48-1.33-8.67-1.13-13.09s0-9,0-13.5v-13.5a28,28,0,0,1,0-4.49c.51-3-.69-5.76-1.3-8.52s-1.44-5.4-1.84-8.23-1.44-5.74-2.09-8.65c-.53-2.39,0-5.06-1-7s-.41-3.84-.75-5.71-1.19-3.56-1.09-5.59c.11-2.36.76-4.91-.92-7.08v-24.5c1.81-2,.69-4.28,1.09-6.67l-1.72.83-1-.74-1.08,1.2c.36,2.81.21,5.33,1.08,7.44,1.07,2.63.56,5.19.53,7.73,0,2.35,1.16,5-.9,7.09.68,2.66-.89,5-1.11,7.57-.19,2.26-1.32,4.43-2.1,6.82,3.66,5,3.79,11,5.25,16.46l-2.78,1.72c-.53,4.8-1,9.27-1.52,13.71l-1.42.37a29,29,0,0,0-1.27,4.47,43.89,43.89,0,0,0,0,5.39c-2.94-.13-2.41-2.47-3.35-3.66-1.36-1.72.32-3.84-2-6,1,4.27-.57,7.37-1.23,11.32-3.53-3-1.88-6.76-2.76-9.91-2.49,2.56-2.49,2.56-3.06,5.1H739c-.28-3.71,2.23-7.24.57-10.9l-1.9,1.61c.44-4.49.79-8,1.15-11.6-1.29,1-1.15,3.62-3.54,2.83-1-2.61,1.5-4.06,1.74-6.22-.21-.2-.4-.49-.66-.6a13.09,13.09,0,0,0-1.77-.44c1.29-3,1.9-6,4.15-7.83-.33-1-.82-1.63-.68-2.1a27.34,27.34,0,0,1,2.41-6.48,66.21,66.21,0,0,1,5.48-6.77c.35-2.48.61-5,1.09-7.53s1.73-5.15.59-7.86c-3,2.37-5,5.85-8.73,7.5v5.21l-2.06.71v2.77l-2.62-1c-.17,1-.32,1.89-.48,2.79h-1.27c-.29-.63-.61-1.3-.83-1.76l-3.69,4.6v-8.49l-4.57,11.4c3,1.69,7.09,2.57,9,7-2.94.84-5.6-2.12-8.33-.21,4.44,1.94,4.44,1.94,6.12,5.23l-10-1v2.77c2,2.39,5.86,2.57,7.07,6-2.92,1.48-4.47-1.47-6.77-1.62s-3.41-3.33-6.22-2.86c1,2.78,1.13,7.29.23,12.26a54.05,54.05,0,0,1-3.08-4.57,42.81,42.81,0,0,1-1.84-4.6,16.64,16.64,0,0,1-2.51,8.41c-2.21-3.13-2.59-6.39-3.63-10.25-.83,4.19.68,8-2.52,11.28-2.07-3.55-3.16-6.84-2.79-10.71l-3.55.39c2.3,2.92,1.63,5.35,0,7.64L691,563.13a6.81,6.81,0,0,1-3.87-5.34c-.24-3.88-1.08-8,1.46-11.07-.37-1.47-.64-2.51-.93-3.66-2.16,1.83-4.69,1-7,.86a14.2,14.2,0,0,0-9.39,3.26c-.49,3.05-.93,5.83-1.38,8.65,2.62,1.17,4.9,2.12,7.12,3.21.49.24.75,1,1.62,2.12l-7.83-.57-2.12,1.11c.71,1.87,1.44,3.74,2.12,5.63.05.16-.22.44-.33.66h-2.14l-4.21-4.85V567l2.49,2.9c1.25-.57,5.57.38,8.81,2a18.84,18.84,0,0,1,10.41,13.3l-7.63-2.92c-.2.58-.39,1.16-.64,1.89L673,583l3.4,6.81c4,1.46,5.23,5.32,7.75,7.94a8.14,8.14,0,0,1,1.82,3.71c.43,1.8,2.14,3.63.22,5.88l-7.3-5.48a95.83,95.83,0,0,0,4.35,16h-2.84c-2.86-3.06-6.45-5.54-8.11-9.75,0,2.78.66,5.43.66,8.08s2.45,5.08.15,8.27c-3.28-4.7-7.27-8.67-8.81-14.42.42,6-1.71,11.36-2.54,16.75h-2.59c-.12-2-.24-3.91-.37-6.07l-1.93,1.93v7.23h-1.39c-3.47-5.87-4.29-12.31-4.78-19.76a41.84,41.84,0,0,0-1.61,5.46,36.07,36.07,0,0,0,0,5c0,6.5-.1,13,0,19.5s.06,13,.76,19.6c.87,8.08.21,16.31.21,24.48,0,8.33.17,16.67,0,25-.22,8,.51,16-.78,24.11-1.07,6.73.54,13.76-1.18,20.55-.72,2.84,1,5.34,1,8.09,0,7.17.15,14.34-.07,21.5s.75,14.4-.82,21.61c-.76,3.5-.13,7.31-.13,11,0,3.5.13,7,0,10.5s-.84,7-.92,10.59q-.22,10.74,0,21.49c.14,7,0,14,.78,21.11,1.21,11.28-.51,22.7,1.06,34.08,1.07,7.77-.2,15.68,1,23.59s-.17,16,1,24.09c.93,6.53.34,13.31.15,20s1.3,13.32,1.14,20.09c-.33,13.82-.1,27.66-.1,41.49H635c0-5.67.47-11.38-.09-17-1.78-18-.64-36.06-.86-54.08s0-36,0-54c-1.69-6.79-.87-13.71-1-20.58s.7-13.76-.18-20.47c-1.45-11.06.25-22.15-1-33.08-1.34-11.57-.53-23.08-.77-34.6s-.06-23.33-.06-35-.81-23.4.21-35c1.25-14.23-.23-28.45,1-42.58.63-7.22.07-14.45.95-21.57a100.71,100.71,0,0,0,.84-11.61c0-3.21.29-6.46-1.58-9.32-.25.53-.56,1.18-.86,1.83h-1.27c-.54-2.87-1.09-5.8-1.77-9.45a13.42,13.42,0,0,0-.5,2.4c0,4-1.26,7.8-2.25,11.6-.26,1-.56,2.08-.82,3.14a10.68,10.68,0,0,1-1.33,2.44l-1.32-1.32c-.54-5.75-1-11.22-1.6-17.18-1.42,4.7-2.7,8.92-4,13.25L615,661V650c-1.53,3.06-2.53,5-3.51,7h-1c-1.9-2.65.87-5.16.37-8.36-2.71,3.88-2.65,8.72-6.66,11.3l.92-5.69-.67-.18-1,2.1-2.14-1c-.81,1.23.06,4.06-3.3,3.77.32-2.31.78-4.59.92-6.89s2.22-4.46.64-6.92c-2,3.85-2,3.85-4.29,4.87.24-2,.46-4,.69-6,.33-.39.88-.75,1-1.18.15-.92,0-1.88.11-2.69,1.66-1,.65-2.49.83-3.71a4.56,4.56,0,0,0-.77-.26c0,1.34,0,2.59-.06,4-.39.26-.94.62-1,1a17.67,17.67,0,0,0,0,2.82h-1.68c-.43-1.75-1.58-3.74-1.17-5.33.81-3.17.75-6.54,2.21-9.56,2.5-5.15,4.2-10.73,8.14-15.11-.29-2.63,1.48-4.47,2.46-6.65A48.29,48.29,0,0,1,617,591.45a8.46,8.46,0,0,0,2.52-3.56,16.71,16.71,0,0,0-2.18,1.26c-6.11,4.78-11.42,10.43-16.92,15.86a16.61,16.61,0,0,1-2.59,1.6,18.63,18.63,0,0,1,2.89-6.88c1.07-1.79,2.1-3.6,3.29-5.65-3.35-.41-2.63,3.19-4.68,3.91h-1.83a4.23,4.23,0,0,0-.53.77,16.07,16.07,0,0,1-4.26,6.3c-1.76,1.53-1.85,4.11-2.71,6.21-.53,1.29-.5,2.81-1.11,4-.41.82-1.5,1.3-2.93,2.45,0-2.84.26-4.84-.07-6.74-.39-2.25,1-4,1.1-6.09.11-1.85.48-3.69.78-5.88-3.88,2.3-4.89,7.54-10.06,9.36.45-1.28.67-1.92.91-2.55a22.35,22.35,0,0,0,.39-4.53,18.06,18.06,0,0,1,1-3.58c1.72-6.25,5.86-11,9.78-15.91,1.36-1.69,3.42-2.81,5.21-4.23-.44-1.48-.87-2.94-1.42-4.82-4.55,5.74-8.93,11.28-12.54,17.62-1.82-1.69-.46-3.46-1-4.46l2.58-5.38c-1.54.63-2.2.82-2.79,1.15-.77.44-1.48,1-2.33,1.55-1.22-2.25,1-2.65,1.48-4-.47-.1-1-.4-1.35-.24-1.38.65-2.7,1.44-4.57,2.48,1-4,3.87-5.61,6-8.18l-3.1-.62c0-2.07,1.52-2.27,2.72-3a22.8,22.8,0,0,0,3.37-3.27c-3.1-1.64-6.13,2.23-9.38-.2,5.51-4.89,11.52-8,19.16-7.16a17.54,17.54,0,0,1-.37-10.07c.62-3.07,3.66-4.62,4.77-7.55l-1.53-.52-2,3.07h-3.33c-.11-.41-.41-.89-.33-1.28a8.36,8.36,0,0,0,.4-3.75c-1,1.28-2,2.55-3.12,3.88h-4.63a46,46,0,0,1,1.36-5.12,44.16,44.16,0,0,1,2.43-4.55c-1,0-1.84-.25-2.11,0-2.45,2.55-5.36,4.68-7.29,8.15l-1.88-1.62a31.81,31.81,0,0,1,1.88-5.58c1-1.77,2.49-3.22,4.38-5.57a10.81,10.81,0,0,0-2.64,1.15c-2.41,2.3-4.73,4.7-7.1,7A21.69,21.69,0,0,1,569,538.2c-2.76-1.83.65-3.24-.29-5.22a13.45,13.45,0,0,0-1.85.7c-.78.44-1.49,1-2.39,1.63-.33-3.28.95-6.89,3.51-10.15h-2.54l-.78-2.25-5.34,3.93h-2.22c1.79-4.39,5.74-6.64,8.23-9.7,1.18-.41,2.5.52,2.68-1.31,2.31-.12,4.63.57,6.92-.51-2.31-.14-4.62-.6-6.92.51a5.72,5.72,0,0,1-1.87.17c-.06-1.08-.12-2.18-.19-3.35,2.3-2.83,5.44-4.13,8.95-5l-3.52-4.44-1.07.86c-.14-1-.25-1.84-.36-2.71l4.24-2.85c-2.52-1.64-4.61,1.85-7,.13l-1.36-3.58c2.67-4.17,6.64-6.36,11.18-9h6.91v-3.75c2.52-.93,3.88.66,5.72,1.51,1.49-2.53-2-4.2-1.57-6.77,4,.32,5.67,3.15,7.92,5.76l-1.73-5.65,2.09-3.28,1,.92,6.06-5h5.92l-3.25-6.68c3.87-.6,6.29,2.73,10.24,4.29a13,13,0,0,0-1-2.6c-1.39-1.78-3.5-3-4.73-5.57,4.83-.51,8.1,2.54,12.08,3.89-.3-2.95-.58-5.74-.87-8.54l2.13-1.77c1.16,1.2,2.07,2.19,3,3.14s1.87,1.84,3,2.92v-7.47c1.09.79,1.77,1.05,2.05,1.54.9,1.61,1.66,3.3,2.78,5.6.17-2.94.31-5.29.46-7.94,4,1.72,5,4.73,5.62,8.33.52-2.87,1-5.74,1.59-8.81h2.31c.13.72.3,1.63.48,2.61.25-.07.63-.07.69-.21.56-1.23,1.07-2.48,1.65-3.88,3.14,1.26,1.52,5.05,4,6.3.69-1.35,1.37-2.7,2.18-4.3,2.74,1.89,2.28,4.72,2.88,7.28a6.72,6.72,0,0,1,.43-1.11,17.36,17.36,0,0,1,1.2-1.52c.9,2.61,2.12,4.57,1.77,7-.3,2.13-.74,4.25-1.26,7.12l1.92-1.47c.62,2.39,1.22,4.7,1.88,7.2,3.47-5.48,6.86-10.83,10.43-16.45.65.52,1.25,1,2,1.61.5,4.24-1,8.27-1.85,12.7,3.47-2,4.11-5.64,5.72-8.48s2.54-6.26,3.75-9.41h2.7c-.3,5-.59,9.76-.92,15.28a29.85,29.85,0,0,1,8.82-10.69c1.47,4.16-.09,9.15-4.13,13.76l4,2.08,4.4-.73L696,478l2.48,3.72,3.07-1.17c-1,2.23-1.65,3.58-2,4.43.27,2.06.49,3.76.76,5.87.7,1.12,3.12-1.09,4,1.61-.76.2-1.43.32-2.07.54a10.15,10.15,0,0,0-1.26.59c-.46.46-.66.57-.69.7a58.67,58.67,0,0,0-1.16,6.5c-.2,2.49-.09,5,0,7.5.07,3.22-1.06,6.19-2.06,9.15a68.07,68.07,0,0,1-3.19,6.81L692,522.54v-4.12l-2.65-5.2-1.47,11.61h-2.75c-.59-2.06.63-4.94-1.86-6.75-.52,3.17-1,6.3-1.61,9.81l-2.44.17q-.81-2.77-1.67-5.69l-3,3.48c-.78-3.42-1.39-6.1-2.07-9.12-1.07,2.51-.85,5.61-4.48,6.48v-10c-4.35,5.34-7.25,10.62-12.49,14.37,4.73,1.63,8.88-1.85,13.19-.25,1.42,2-1.57,1.22-1.68,2.66,4,.2,7.84-2.1,12.15-.44a12.17,12.17,0,0,1-5.47,3.89l3.09,1.59c2.47.34,5.34-.41,8.25.84a6.77,6.77,0,0,0,5.2-.42c1.78-.83,4.15-.4,6.3-.52.27.74.47,1.31.84,2.31l9.59-.9c6.39-8.39,11.64-17.14,18.6-24.56-.29-1.42-.6-2.89-1-4.72-2.76,2-3.88,5.09-5.65,7.68s-3.41,5.24-5.29,8.14c-1.36.11-2.94.73-4.2-.82l-2.06,3.22-.81-2.13c-2.64,1.14-1.7,5.5-5.65,6,.76-6.16,3.11-11.43,5.82-16.72l-1.93-.91A62.94,62.94,0,0,1,737,482.61l-.1-1.31c-.82.24-1.62.45-2.4.71s-1.41.53-2.21.84c-.16-.44-.36-1-.68-2l-2.34.82c-.54-1.4-1.17-3-1.73-4.49l-3.11,1.18c2.95-6.44,8.31-9.14,13.06-13.26-2.42.34-4.21.64-6,.84s-3.43,2-5.49.54c-.1-2,1.66-2.34,3-3.42h-4.84v-2.72c4.3-2.28,9-2.6,14.25-2.36-5.52-3.43-10.42-6.68-15.51-9.59-4.35-2.48-8.91-4.6-14.15-4.45a12.49,12.49,0,0,1-2-.3c1.27-4,4.78-4.56,7.58-5.32,3-.83,6.44-.41,9.7-1l-2.88-.55v-2.4c3.86-1.81,7.71,1.9,12,.19-3.7-3.12-6.25-7.19-10.23-9.2l-3.91.57c1.63-1.9,2.56-3,3.38-3.94,6.24,0,6.24,0,13.06,3,.33-.68.65-1.36,1.09-2.26,1.25.67,2.45,1.36,3.69,2,1.07.52,2.2.93,4.18,1.75a12.64,12.64,0,0,0-1.17-2.67c-1.1-1.25-2.33-2.38-3.69-3.74h-4.16c0-.41-.19-.76-.08-.86,2-2.12,4.2-4.06,7.51-2.85.28.1.46.51.74.61a2.45,2.45,0,0,0,1,0l-2.36-2.3V412c2.35-.13,3.62,2.31,5.46,2.06,1.48,1,1.92,3,5.13,2.87C750.65,415.62,750.23,413.58,747.65,414.07Zm51.48,64.65c-4.16,1.75-7.21,4.58-11,7.82l4.12.71,6.34,6.35,2.24-.45L800,496c2.46-.92,4.14-3.46,6.53-1.23,2.77-1.88,5.11-4.35,8.6-4.77.31,0,.68.44,1.44,1A77,77,0,0,0,802,503.68l3.35.9,7.41-2.69c.87,3.08-2.64,1.78-2.76,3.92a35.28,35.28,0,0,1,11.44,9.24,36.67,36.67,0,0,1,6.18,12.71c.87-17.79.62-60.43-.2-65.05l-7.22,1.43,2.74,8.19L821.89,474c1.53,3,2.78,5.81,1.42,10.11-2.32-3.41-3.28-6.86-6.63-9.58,1,3,2.34,5.06,2.14,7-.23,2.24,2.35,4.29.29,7a19.61,19.61,0,0,1-5.16-7c-.07-.16-.44-.2-.68-.3-.25,1.34-.49,2.64-1,5.15l-4-7.52c-.59,3.88-1.13,7.47-1.74,11.48l-2.82-1.85V482c-1.44,3.24.4,7.12-2.4,10l-.94-.09c-1-4.25-1.84-8.51-1.42-12.91l.47.11c.48-2,.95-4,1.58-6.65-1.8.89-2.94,1.34-4,2a37.61,37.61,0,0,0-3.08,2.4l5,.34A4,4,0,0,0,799.13,478.72ZM818,49.61c-3.47-2.37-6.34-5-9.72-6.46s-6.22-4.41-10.92-5.37C806,44.37,808.6,49.09,811.52,55l7.72-1.46C818.81,52.2,818.41,50.89,818,49.61ZM858.18,175.8c2.23-5.16,4.42-10.32,9.62-13L862.23,154C860.49,161.18,858.69,168.29,858.18,175.8ZM612.23,487.72l-10.08-6.17,5,14.08,3.23,1.48c1.47-1.47,2.82-2.7,4-4.08.4-.45.36-1.27.71-2.71-2.18,1.79-3.61,3.05-5.15,4.16-.47.33-1.26.24-2.9.5ZM788.65,84.52c.87-3.87-3.67-5.14-2.36-8.57l3.25,2.78L787,72.12h-4.13L780,74.44ZM890,97.47c-.09,4-3.33,7.34-2.77,12.17,2.83-6,5.77-11.2,10-15.5.43-.43.5-1.24.92-2.37C894.15,92.61,892.29,95.37,890,97.47Zm-277,432.12-9.39-1.74a13.47,13.47,0,0,0-4.75,9.9C602.82,533.13,606.93,530.48,613.06,529.59Zm175.39-30.37c.27-.66.66-1.61,1-2.49l3.39,1c.77-2.57-2.67-1.4-2.74-3.13-3.3-1.24-6-4.49-10-3.41ZM764.34,126.48c-5.24,2.23-8.05,5.9-11.71,9.33h5.08ZM886.83,93.84c-.59.51-1.1.73-1.22,1.09-1.24,3.62-2.45,7.26-3.56,10.91-.11.35.44.9,1.29,2.46C884.9,102.88,887.61,99,886.83,93.84ZM779,133.87c-.07-2.35-.15-4.76,1.36-6.8a8.76,8.76,0,0,0,.71-2.44l-8.15,6.77ZM657.17,501.77c-.8.33-2.08.46-2.39,1.08-.93,1.84-2.06,3.74-1.71,6l6.48-4.39Zm-47.23,85.65-1.94-.9c0-1.41,0-2.73,0-4,0-1.12-.14-2.23-.22-3.35h-1.06c1.38,4.85-1.34,9.14-1.63,13.67ZM601,515l-2.78-4.18-2,1.1c-.19-1.31-.38-2.58-.57-3.88l-2.38,3.36,4.45,3.6Zm-18.52-9.94,2.47-6.51-4.81,1.71c-.1.88-.19,1.67-.28,2.42l-2.07.86ZM773.94,125.91c-4.68,2.12-4.68,2.12-7.7,6h4.21C771.58,130,772.64,128.14,773.94,125.91Zm55.23,44.81v5.2h2.46l2.44-2.43c-.56-1.64-1.06-3.05-1.75-5.06-.26,1.94-.43,3.28-.73,5.58C830.55,172.58,830.06,171.93,829.17,170.72ZM743,511.77l-1.41-2.46-3.38,4.18v4.12Zm-15.93-1.28c2.67-3.09,7.35-4.33,5.23-9.31.28,3.75-3.16,4.36-5.23,6.14Zm-78.47,55.56a27,27,0,0,0-.14,10.14l2.53-4.12C650.1,569.79,649.36,567.92,648.62,566.05Zm-28.2,2.82L624,560.7l-1.46-2c-1.19,2.93-2.21,5.43-3.22,7.93Zm-3.23-67.6-1.46-2.79-2.81,1.94c.09,1.41.15,2.51.22,3.6Zm.41,4.48c-1,1.17-1.79,2.14-2.59,3.12-.08.1,0,.32,0,.49l4.29,2.89C618.65,509.8,618.17,507.93,617.6,505.75Zm172.23-400.2,4.08,6.9C794.15,108.78,793.84,106.16,789.83,105.55Zm16.29,62.28c2.15-3.44,2.4-5.93,1.13-9.8-.21,1.71,0,3.51-.7,4.76C805.5,164.6,806.43,166.18,806.12,167.83Zm48.69-13.55c.47,2-.17,3.91.53,5.74,1-2.2,1.83-4.11,2.63-6,.09-.2-.2-.55-.44-1.14ZM607.09,476.84c-4.9-2.92-5-2.15-8,0Zm170.47-403c.15-1.51,2.7-2.8.61-5.14l-2.95,2.53Zm-26.42,56.64-.88-.63-3.86,5.8,2.2.37C749.52,134,750.33,132.25,751.14,130.47Zm69.69-66.18c-2.49-1.23-4.45,1-6.7.88v2.46Zm-42.44,73.39,2.77-1L780,135.48l-7.79.94ZM793.92,444l7.43-1.41-4.62-1.91ZM867.44,96.19l-1.29,2.16c-.43.72-.85,1.45-1.33,2.29l4.45-4.45Zm-96.69,39.69c-2-.88-3.74-2.09-4.14-1.75-1.28,1.12-2.15,1.06-3.21,0-.48.5-.92,1-1.35,1.47l.34.33ZM824.45,530l-.56.38,2.92,7.09v-5l-.7.86C825.55,532.28,825,531.16,824.45,530Zm-235.74-27.8c-2.37.21-3.2,2.09-4.49,3.49C586.72,505.82,587.43,503.62,588.71,502.23ZM822.79,15.7c1.07.93,2.09,1.94,3.24,2.76a4.9,4.9,0,0,0,1.87.39C826.28,17.57,825.73,15.19,822.79,15.7Zm47.46,40.42v4.74H873Zm-67,463.72,4.36,4.08C807.4,521.68,806.5,520.21,803.26,519.84ZM851.32,194c-.2,3.49,0,3.75,2.5,3.5Zm.4-11.9c-.48,1.76-1.52,3.75,1.55,4.93a23.11,23.11,0,0,1-1-2.27C852.05,183.92,851.91,183,851.72,182.13Zm46.58-73.44c-2.31.55-3.45,1.12-3.25,3.09l1.53.31a9.75,9.75,0,0,1,.43-1.29C897.26,110.3,897.59,109.84,898.3,108.69Zm-236.78,401-1.39,3.37,3.35-.29Zm-1.71,58a7.47,7.47,0,0,1-.78-1.52,13.46,13.46,0,0,1-.24-2.2l-.55,0v5.19ZM783.5,502c-1.52-3-1.79-3.26-2.68-2.26.28.46.63,1,.91,1.5s.48,1.11.76,1.77Zm3.28-47.66.55.49,2.34-1.14-1.16-2.05Zm43.38-316.25,1.68,4.83v-4.83ZM577,501.2l-5.11,1.55H577Zm229.84-430c-.7,1.54-1.13,3.14,0,4.65Zm98,44.75c-2,.15-2.73,1.08-2.83,2.77ZM780.17,531.81H781l-.26-3.69-.61,0ZM904,113.44c-1.85-1.09-2.16.45-3.08,1.12C902.81,115.65,903.12,114.11,904,113.44ZM617.15,540.51c-1.27.4-3.06.91-1.51,2.69C616.18,542.24,616.67,541.38,617.15,540.51ZM813.08,21.17l3.32-.57-3.32-1.47Zm64.4-6.31c-.47,1.09-2.21,1.28-1,3.28C877,17.05,878.73,16.86,877.48,14.86ZM656.89,514.18l2.14-.4c-.06-1-.12-1.88-.21-3.34C658.06,511.9,657.61,512.78,656.89,514.18Zm122.8-7.37-1.05-1.95-.69.37c.11.89.23,1.78.38,2.94ZM617.25,558h.5v-4h-.5Zm193.31-30c1.09-1.85-.45-2.16-1.12-3.08C808.35,526.81,809.89,527.12,810.56,528Z" transform="translate(-1 -1.88)"/></g></g></svg>