<?xml version="1.0" encoding="UTF-8" standalone="no"?>
<svg
   xmlns:dc="http://purl.org/dc/elements/1.1/"
   xmlns:cc="http://creativecommons.org/ns#"
   xmlns:rdf="http://www.w3.org/1999/02/22-rdf-syntax-ns#"
   xmlns:svg="http://www.w3.org/2000/svg"
   xmlns="http://www.w3.org/2000/svg"
   id="svg8"
   version="1.1"
   viewBox="0 0 52.922337 52.92585"
   height="52.92585mm"
   width="52.922337mm">
  <defs
     id="defs2" />
  <metadata
     id="metadata5">
    <rdf:RDF>
      <cc:Work
         rdf:about="">
        <dc:format>image/svg+xml</dc:format>
        <dc:type
           rdf:resource="http://purl.org/dc/dcmitype/StillImage" />
        <dc:title></dc:title>
      </cc:Work>
    </rdf:RDF>
  </metadata>
  <g
     transform="translate(-64.253117,-112.54303)"
     id="layer1">
    <g
       transform="matrix(0.41343084,0,0,0.41343084,-15.116628,94.902493)"
       id="g35">
      <path
         style="fill:#f6bb42"
         d="m 319.986,106.678 c 0,-20.937 -10.062,-39.529 -25.608,-51.201 v 0 c 0,0 -47.357,8.796 -38.389,51.201 41.186,13.437 25.124,58.856 25.124,58.856 h 0.016 c 22.842,-9.765 38.857,-32.436 38.857,-58.856 z"
         id="path10" />
      <path
         style="fill:#4a89dc"
         d="M 315.986,128.926 C 295.049,79.772 259.661,78.053 259.63,78.053 c -4.187,7.203 -6.203,16.546 -3.641,28.624 41.186,13.437 25.124,58.856 25.124,58.856 h 0.016 c 16.077,-6.874 28.764,-20.139 34.857,-36.607 z"
         id="path12" />
      <path
         style="fill:#ffce54"
         d="m 223.991,51.259 c -18.14,10.468 -29.202,28.467 -31.545,47.763 v 0 c 0,0 31.295,36.623 63.543,7.656 -8.968,-42.404 38.389,-51.201 38.389,-51.201 0,0 0.016,0 0.016,-0.016 -19.889,-14.89 -47.53,-17.421 -70.403,-4.202 z"
         id="path14" />
      <path
         style="fill:#5d9beb"
         d="m 245.24,43.587 c -32.092,42.717 -15.875,74.215 -15.875,74.23 8.343,0.031 17.437,-2.891 26.624,-11.14 -8.968,-42.404 38.389,-51.201 38.389,-51.201 0,0 0.016,0 0.016,-0.016 -14,-10.482 -31.843,-14.826 -49.154,-11.873 z"
         id="path16" />
      <path
         style="fill:#ffce54"
         d="m 223.991,162.097 c 18.124,10.468 39.248,11.062 57.122,3.437 v 0 c 0,0 16.062,-45.419 -25.124,-58.856 -32.248,28.967 -63.543,-7.656 -63.543,-7.656 h -0.016 c -2.953,24.671 8.687,49.872 31.561,63.075 z"
         id="path18" />
      <path
         style="fill:#5d9beb"
         d="m 206.711,147.519 c 53.044,6.437 72.215,-23.342 72.23,-23.374 -4.141,-7.219 -11.233,-13.64 -22.952,-17.468 -32.248,28.967 -63.543,-7.656 -63.543,-7.656 h -0.016 c -2.078,17.359 3.078,34.983 14.281,48.498 z"
         id="path20" />
    </g>
  </g>
</svg>
